<svg width="276" height="276" viewBox="0 0 276 276" fill="none" xmlns="http://www.w3.org/2000/svg">
<path d="M70.1336 188.905C69.364 187.959 68.7806 186.861 68.3835 185.611L70.3521 184.514L70.6491 184.736C70.6609 185.448 70.7469 186.061 70.9071 186.575C71.0518 187.102 71.2945 187.575 71.6351 187.994C72.1776 188.661 72.785 189.044 73.4573 189.142C74.1141 189.252 74.6676 189.125 75.1176 188.759C75.5677 188.393 75.781 187.91 75.7575 187.311C75.7215 186.695 75.5525 185.853 75.2505 184.784C74.9931 183.834 74.8246 183.056 74.7449 182.45C74.6526 181.83 74.6961 181.201 74.8754 180.566C75.0265 179.927 75.397 179.369 75.9867 178.889C76.592 178.397 77.2909 178.1 78.0834 177.997C78.8605 177.906 79.6706 178.047 80.5138 178.418C81.3288 178.786 82.0895 179.405 82.796 180.274C83.2376 180.817 83.6423 181.442 84.0102 182.148C84.3499 182.851 84.596 183.566 84.7485 184.293L82.7392 185.578L82.4568 185.421C82.5381 184.634 82.4695 183.852 82.251 183.076C82.0044 182.297 81.6793 181.659 81.2756 181.162C80.7457 180.51 80.1397 180.114 79.4577 179.972C78.7601 179.844 78.163 179.981 77.6664 180.385C77.2009 180.763 76.9861 181.26 77.0222 181.875C77.0456 182.475 77.1991 183.329 77.4827 184.439C77.7303 185.346 77.9066 186.118 78.0115 186.754C78.1038 187.375 78.0681 187.997 77.9043 188.62C77.725 189.255 77.3405 189.813 76.7508 190.292C76.13 190.797 75.4389 191.088 74.6773 191.166C73.9032 191.228 73.1226 191.076 72.3358 190.711C71.5363 190.33 70.8022 189.728 70.1336 188.905Z" fill="white"/>
<path d="M58.4029 169.358C57.7221 167.844 57.4507 166.387 57.5887 164.987L59.6489 164.521L59.8417 164.73C59.6637 165.359 59.6006 166.023 59.6524 166.723C59.7042 167.424 59.886 168.12 60.1977 168.814C60.8047 170.163 61.706 170.997 62.9014 171.315C64.0786 171.641 65.5245 171.418 67.2391 170.647C68.972 169.868 70.1344 168.917 70.7265 167.796C71.3187 166.674 71.3112 165.439 70.7042 164.089C70.4089 163.432 70.0041 162.825 69.49 162.266C68.9493 161.698 68.3685 161.236 67.7476 160.879L67.719 160.596L69.693 159.938C70.9257 160.875 71.8496 162.028 72.4648 163.396C73.3671 165.402 73.4675 167.21 72.7658 168.819C72.0459 170.437 70.5824 171.742 68.3753 172.735C66.1317 173.744 64.1446 173.957 62.4139 173.376C60.675 172.776 59.338 171.437 58.4029 169.358Z" fill="white"/>
<path d="M52.319 147.359C52.0266 145.199 52.4369 143.458 53.5497 142.137C54.6598 140.796 56.3744 139.968 58.6932 139.654C61.2103 139.314 63.247 139.674 64.8033 140.735C66.3372 141.778 67.2597 143.45 67.5709 145.749C67.8606 147.889 67.4405 149.631 66.3105 150.975C65.1607 152.321 63.3867 153.157 60.9886 153.481C58.531 153.814 56.5538 153.446 55.0569 152.377C53.5402 151.311 52.6276 149.638 52.319 147.359ZM54.2201 147.314C54.4321 148.879 55.0363 149.988 56.0328 150.64C57.0266 151.273 58.4847 151.459 60.4072 151.199C62.4684 150.92 63.9138 150.341 64.7433 149.461C65.5729 148.582 65.8831 147.37 65.6738 145.824C65.4592 144.238 64.8437 143.121 63.8274 142.471C62.8111 141.822 61.3318 141.628 59.3895 141.891C57.3878 142.162 55.9735 142.747 55.1466 143.646C54.317 144.525 54.0082 145.748 54.2201 147.314Z" fill="white"/>
<path d="M52.8313 122.419C53.073 120.858 53.6336 119.72 54.5131 119.006C55.3957 118.272 56.5485 118.016 57.9715 118.236C59.6318 118.493 60.8537 119.228 61.6372 120.442C62.404 121.634 62.6437 123.158 62.3562 125.016L62.0763 126.825L62.5507 126.898L67.1848 127.555L66.8453 129.748L62.412 128.971L52.081 127.464L52.8313 122.419ZM60.7468 124.039C60.7136 122.03 59.7285 120.876 57.7916 120.576C56.8626 120.432 56.1296 120.592 55.5924 121.055C55.0583 121.499 54.6904 122.241 54.4888 123.283L54.1697 125.54L60.3021 126.52L60.7468 124.039Z" fill="white"/>
<path d="M68.3005 102.961C70.4989 102.622 72.724 102.153 74.9756 101.552L75.2362 101.704C75.1245 102.576 74.9749 103.266 74.7874 103.774L74.4072 104.03C71.684 104.459 69.5601 104.755 68.0355 104.918L66.8935 107.496L67.576 107.807L71.8596 109.693L70.9391 111.713L66.8815 109.765L57.3439 105.518L59.4313 100.865C60.0865 99.4273 60.9249 98.4796 61.9466 98.0221C62.9766 97.5463 64.1285 97.5987 65.4025 98.1792C66.3307 98.6021 67.0427 99.2343 67.5385 100.076C68.0425 100.899 68.2966 101.861 68.3005 102.961ZM65.2134 106.698L66.4646 104.169C66.7477 102.342 66.1248 101.08 64.596 100.383C63.7953 100.018 63.0869 99.9812 62.4708 100.272C61.8548 100.563 61.3089 101.182 60.833 102.13L59.9024 104.245L65.2134 106.698Z" fill="white"/>
<path d="M78.0576 90.0633L81.7932 92.8831L80.4331 94.6377L76.9316 91.8096L68.6252 85.4846L70.0037 83.7063L78.0576 90.0633Z" fill="white"/>
<path d="M93.783 63.026C95.7561 61.8833 97.5675 61.5392 99.2173 61.9935C100.884 62.4378 102.289 63.6465 103.432 65.6195C104.745 67.8867 105.181 69.9568 104.741 71.8299C104.3 73.7029 103.015 75.2558 100.887 76.4887C100.281 76.8395 99.5439 77.2432 98.6758 77.6997C97.835 78.1635 97.0325 78.5936 96.2683 78.99L94.0909 75.0508L88.7809 66.0616L93.783 63.026ZM100.281 74.7247C101.665 73.9228 102.489 72.891 102.752 71.6293C103.023 70.3402 102.667 68.8476 101.685 67.1516C100.722 65.4901 99.6559 64.4668 98.4852 64.0816C97.3145 63.6964 96.011 63.9198 94.5745 64.7517C93.7264 65.2429 92.7513 65.8538 91.6492 66.5846L95.792 73.8577L97.2312 76.2829C97.7532 76.0269 98.3011 75.7558 98.875 75.4696C99.4488 75.1835 99.9175 74.9352 100.281 74.7247Z" fill="white"/>
<path d="M116.483 64.6908L117.83 69.1732L115.696 69.7847L114.543 65.4339L111.581 55.4225L113.744 54.8028L116.483 64.6908Z" fill="white"/>
<path d="M144.118 52.1561C145.693 52.2923 146.865 52.7753 147.637 53.6048C148.428 54.4362 148.761 55.5692 148.637 57.0038C148.492 58.6775 147.841 59.9461 146.682 60.8094C145.545 61.6545 144.04 61.996 142.167 61.8339L140.344 61.6761L140.302 62.1543L139.958 66.822L137.747 66.6306L138.224 62.1551L139.035 51.7462L144.118 52.1561ZM143.034 60.1624C145.036 59.9944 146.121 58.9341 146.29 56.9814C146.372 56.0449 146.163 55.3242 145.665 54.8193C145.186 54.3162 144.421 53.999 143.368 53.8678L141.094 53.7011L140.529 59.8854L143.034 60.1624Z" fill="white"/>
<path d="M159.537 65.8828L158.161 70.3565L156.048 69.6768L157.511 65.4204L160.622 55.4542L162.764 56.1431L159.537 65.8828Z" fill="white"/>
<path d="M182.645 57.3649C183.151 59.3527 183.776 61.4506 184.521 63.6585L183.454 64.1244L183.209 64.0071C182.532 62.4075 181.76 60.4307 180.894 58.0767L180.97 57.8413L182.4 57.2476L182.645 57.3649ZM181.437 74.0013L180.295 75.8347C179.413 77.2883 178.273 78.1338 176.877 78.3712C175.497 78.6192 173.975 78.2251 172.312 77.1888C170.665 76.1631 169.652 74.9901 169.273 73.67C168.904 72.3328 169.191 70.9448 170.134 69.506L171.365 67.5866L175.289 61.2302L177.199 62.4198L172.133 70.3266C171.449 71.3855 171.21 72.3558 171.415 73.2374C171.637 74.1296 172.3 74.9193 173.403 75.6067C174.49 76.2834 175.482 76.5247 176.381 76.3304C177.279 76.1361 178.053 75.4989 178.702 74.4189L183.591 66.401L185.526 67.6065L181.437 74.0013Z" fill="white"/>
<path d="M205.874 86.7306C206.644 87.6772 207.227 88.7753 207.624 90.0247L205.656 91.1225L205.359 90.8999C205.347 90.1878 205.261 89.5747 205.101 89.0606C204.956 88.5338 204.713 88.0609 204.373 87.6419C203.83 86.9746 203.223 86.5921 202.55 86.4942C201.894 86.3838 201.34 86.5115 200.89 86.8774C200.44 87.2433 200.227 87.726 200.25 88.3255C200.286 88.9406 200.455 89.7826 200.757 90.8516C201.015 91.8023 201.183 92.5803 201.263 93.1857C201.355 93.8065 201.312 94.4347 201.132 95.0702C200.981 95.7086 200.611 96.2675 200.021 96.7469C199.416 97.2389 198.717 97.5364 197.924 97.6395C197.147 97.7299 196.337 97.5895 195.494 97.2181C194.679 96.8497 193.918 96.2309 193.212 95.3619C192.77 94.8187 192.366 94.194 191.998 93.4879C191.658 92.7846 191.412 92.0697 191.259 91.3431L193.269 90.0576L193.551 90.2147C193.47 91.0024 193.538 91.7844 193.757 92.5604C194.003 93.3394 194.329 93.9772 194.732 94.4738C195.262 95.1256 195.868 95.5222 196.55 95.6637C197.248 95.7925 197.845 95.6551 198.341 95.2514C198.807 94.8729 199.022 94.3761 198.986 93.7611C198.962 93.1615 198.809 92.3069 198.525 91.1971C198.278 90.2901 198.101 89.5184 197.996 88.882C197.904 88.2611 197.94 87.6393 198.103 87.0164C198.283 86.3809 198.667 85.8234 199.257 85.344C199.878 84.8394 200.569 84.5482 201.33 84.4704C202.105 84.4081 202.885 84.5597 203.672 84.9252C204.472 85.3063 205.206 85.9081 205.874 86.7306Z" fill="white"/>
<path d="M217.605 106.278C218.286 107.792 218.557 109.249 218.419 110.649L216.359 111.115L216.166 110.906C216.344 110.277 216.407 109.613 216.355 108.913C216.304 108.212 216.122 107.516 215.81 106.822C215.203 105.473 214.302 104.639 213.106 104.321C211.929 103.995 210.483 104.218 208.769 104.989C207.036 105.768 205.873 106.719 205.281 107.84C204.689 108.962 204.697 110.197 205.304 111.547C205.599 112.204 206.004 112.811 206.518 113.37C207.058 113.938 207.639 114.4 208.26 114.757L208.289 115.04L206.315 115.698C205.082 114.761 204.158 113.608 203.543 112.24C202.641 110.234 202.54 108.426 203.242 106.817C203.962 105.199 205.425 103.894 207.632 102.901C209.876 101.893 211.863 101.679 213.594 102.26C215.333 102.86 216.67 104.199 217.605 106.278Z" fill="white"/>
<path d="M223.689 128.277C223.981 130.437 223.571 132.178 222.458 133.499C221.348 134.84 219.633 135.668 217.315 135.982C214.798 136.322 212.761 135.962 211.205 134.902C209.671 133.858 208.748 132.186 208.437 129.887C208.147 127.747 208.567 126.005 209.697 124.661C210.847 123.315 212.621 122.479 215.019 122.155C217.477 121.822 219.454 122.19 220.951 123.259C222.468 124.325 223.38 125.998 223.689 128.277ZM221.788 128.323C221.576 126.757 220.972 125.648 219.975 124.996C218.981 124.363 217.523 124.177 215.601 124.437C213.539 124.716 212.094 125.295 211.264 126.175C210.435 127.054 210.125 128.266 210.334 129.812C210.549 131.398 211.164 132.515 212.18 133.165C213.197 133.814 214.676 134.008 216.618 133.745C218.62 133.474 220.034 132.889 220.861 131.99C221.691 131.111 222 129.888 221.788 128.323Z" fill="white"/>
<path d="M223.176 153.217C222.935 154.778 222.374 155.916 221.495 156.63C220.612 157.364 219.459 157.62 218.036 157.4C216.376 157.143 215.154 156.408 214.371 155.194C213.604 154.002 213.364 152.478 213.652 150.62L213.931 148.811L213.457 148.738L208.823 148.082L209.163 145.888L213.596 146.665L223.927 148.172L223.176 153.217ZM215.261 151.597C215.294 153.606 216.279 154.76 218.216 155.06C219.145 155.204 219.878 155.044 220.415 154.581C220.95 154.137 221.317 153.395 221.519 152.353L221.838 150.096L215.706 149.116L215.261 151.597Z" fill="white"/>
<path d="M207.707 172.675C205.509 173.014 203.284 173.483 201.032 174.084L200.772 173.932C200.883 173.06 201.033 172.37 201.22 171.862L201.601 171.606C204.324 171.177 206.448 170.881 207.972 170.719L209.114 168.14L208.432 167.829L204.148 165.943L205.069 163.923L209.126 165.871L218.664 170.118L216.576 174.771C215.921 176.209 215.083 177.156 214.061 177.614C213.031 178.09 211.879 178.037 210.605 177.457C209.677 177.034 208.965 176.402 208.469 175.56C207.965 174.737 207.711 173.775 207.707 172.675ZM210.794 168.938L209.543 171.467C209.26 173.294 209.883 174.556 211.412 175.253C212.213 175.618 212.921 175.655 213.537 175.364C214.153 175.073 214.699 174.454 215.175 173.506L216.105 171.391L210.794 168.938Z" fill="white"/>
<path d="M197.95 185.573L194.215 182.753L195.575 180.998L199.076 183.826L207.383 190.151L206.004 191.93L197.95 185.573Z" fill="white"/>
<path d="M182.225 212.61C180.252 213.753 178.44 214.097 176.79 213.643C175.123 213.198 173.718 211.99 172.576 210.017C171.263 207.749 170.827 205.679 171.267 203.806C171.708 201.933 172.993 200.38 175.121 199.147C175.727 198.797 176.464 198.393 177.332 197.936C178.173 197.473 178.975 197.042 179.74 196.646L181.917 200.585L187.227 209.574L182.225 212.61ZM175.727 200.911C174.342 201.713 173.518 202.745 173.255 204.007C172.985 205.296 173.341 206.788 174.323 208.484C175.286 210.146 176.352 211.169 177.523 211.554C178.693 211.94 179.997 211.716 181.433 210.884C182.281 210.393 183.256 209.782 184.359 209.051L180.216 201.778L178.777 199.353C178.255 199.609 177.707 199.88 177.133 200.166C176.559 200.453 176.09 200.701 175.727 200.911Z" fill="white"/>
<path d="M159.524 210.945L158.178 206.463L160.312 205.851L161.465 210.202L164.427 220.214L162.264 220.833L159.524 210.945Z" fill="white"/>
<path d="M131.889 223.48C130.315 223.344 129.143 222.861 128.371 222.031C127.58 221.2 127.246 220.067 127.371 218.632C127.515 216.959 128.167 215.69 129.326 214.827C130.463 213.982 131.968 213.64 133.841 213.802L135.664 213.96L135.706 213.482L136.049 208.814L138.261 209.005L137.783 213.481L136.973 223.89L131.889 223.48ZM132.974 215.474C130.972 215.642 129.886 216.702 129.717 218.655C129.636 219.591 129.845 220.312 130.343 220.817C130.822 221.32 131.587 221.637 132.64 221.768L134.914 221.935L135.479 215.751L132.974 215.474Z" fill="white"/>
<path d="M116.471 209.753L117.847 205.28L119.96 205.959L118.497 210.216L115.386 220.182L113.244 219.493L116.471 209.753Z" fill="white"/>
<path d="M93.3627 218.271C92.8572 216.283 92.2318 214.185 91.4865 211.978L92.5542 211.512L92.7993 211.629C93.4759 213.229 94.2474 215.205 95.1138 217.559L95.0378 217.795L93.6077 218.388L93.3627 218.271ZM94.5713 201.635L95.7133 199.801C96.5951 198.348 97.7344 197.502 99.1311 197.265C100.511 197.017 102.033 197.411 103.696 198.447C105.343 199.473 106.356 200.646 106.735 201.966C107.104 203.303 106.817 204.691 105.873 206.13L104.643 208.049L100.718 214.406L98.8087 213.216L103.875 205.309C104.558 204.251 104.797 203.28 104.593 202.399C104.371 201.506 103.708 200.717 102.605 200.029C101.518 199.353 100.526 199.111 99.6271 199.306C98.7285 199.5 97.9546 200.137 97.3054 201.217L92.4172 209.235L90.482 208.03L94.5713 201.635Z" fill="white"/>
</svg>
