<svg width="62" height="47" viewBox="0 0 62 47" fill="none" xmlns="http://www.w3.org/2000/svg">
<path d="M5.51615 23.099L5.48714 2.79942C5.48487 2.34599 5.30986 1.9106 4.99796 1.58251C4.68605 1.25441 4.26089 1.05843 3.80956 1.03472L3.29292 1.00571C1.79914 0.928307 1.05032 1.63842 1.04645 3.13607L1 43.5727C1 44.1115 1.21345 44.6283 1.59338 45.0093C1.97331 45.3903 2.48859 45.6044 3.02589 45.6044L59.3445 45.5521C59.5746 45.5523 59.8022 45.5044 60.0127 45.4117C60.2233 45.3189 60.4121 45.1832 60.5673 45.0133C60.7224 44.8434 60.8404 44.6431 60.9137 44.425C60.9871 44.2069 61.0141 43.9759 60.9931 43.7468L60.9409 43.1721C60.8054 41.6745 59.9869 40.9257 58.4854 40.9257L5.94574 40.9372C5.83336 40.9372 5.72555 40.8932 5.64608 40.8148C5.56661 40.7365 5.52196 40.6302 5.52196 40.5193C5.52583 37.5047 5.5336 34.4552 5.54521 31.3709C5.54908 30.6859 5.93607 29.9642 6.70618 29.2057C10.8818 25.0804 15.0148 20.9608 19.1053 16.8471C19.1885 16.7638 19.3016 16.7171 19.42 16.7171C19.5385 16.7171 19.6527 16.7638 19.738 16.8471L39.4455 36.4849C39.8538 36.8925 40.4006 37.1317 40.9777 37.1554C41.5549 37.179 42.1205 36.9854 42.5627 36.6127L52.5529 28.1666C53.0284 27.7629 53.3241 27.1868 53.3752 26.5645C53.4263 25.9421 53.2287 25.3242 52.8257 24.8462L52.518 24.4863C52.3576 24.2958 52.161 24.1389 51.9396 24.0246C51.7181 23.9104 51.4762 23.8411 51.2275 23.8206C50.9789 23.8001 50.7285 23.8288 50.4908 23.9052C50.253 23.9816 50.0326 24.1041 49.842 24.2657L41.425 31.4289C41.2702 31.5566 41.1231 31.5508 40.9838 31.4115C34.5404 25.0068 28.1183 18.5828 21.7175 12.1394C19.9644 10.3747 18.8731 10.4734 17.1317 12.2381C13.494 15.9183 9.8021 19.6122 6.05604 23.3195C5.70001 23.6756 5.52002 23.602 5.51615 23.099Z" stroke="#FFD600" stroke-width="2"/>
<path d="M46.3878 11.8898L39.6658 17.7179C39.5914 17.781 39.4964 17.8142 39.3997 17.811C39.3029 17.8077 39.2114 17.7683 39.1434 17.7005L33.0367 11.5996C32.7299 11.294 32.3262 11.1049 31.8951 11.0646C31.4639 11.0244 31.0322 11.1355 30.6741 11.379L29.2229 12.36C28.3947 12.9173 28.3386 13.5442 29.0546 14.2408C33.3115 18.3583 35.9991 21.0383 37.1175 22.2805C38.8473 24.1903 40.2173 23.4705 41.9239 21.9786C44.4316 19.7805 47.0457 17.5263 49.7663 15.216C49.8515 15.1442 49.9609 15.1078 50.0721 15.1143C50.1834 15.1207 50.2879 15.1696 50.3641 15.2508L51.6354 16.5859C51.8017 16.759 52.0132 16.8819 52.2458 16.9407C52.4785 16.9996 52.723 16.992 52.9515 16.9188C53.1801 16.8457 53.3835 16.7099 53.5387 16.5268C53.694 16.3438 53.7948 16.121 53.8297 15.8835L54.8977 8.51719C54.9258 8.32519 54.9088 8.12929 54.848 7.94503C54.7871 7.76077 54.6841 7.59324 54.5472 7.45575C54.4103 7.31825 54.2431 7.21457 54.0591 7.15296C53.8751 7.09135 53.6793 7.07349 53.4872 7.10081L46.0918 8.14567C45.8762 8.17733 45.6729 8.26598 45.503 8.4024C45.3332 8.53882 45.2029 8.71803 45.1259 8.92134C45.0488 9.12465 45.0278 9.34461 45.0649 9.55837C45.1021 9.77214 45.1961 9.97186 45.3372 10.1367L46.4227 11.4196C46.5659 11.5899 46.5542 11.7466 46.3878 11.8898Z" stroke="#FFD600" stroke-width="2"/>
<path d="M22.6404 25.0494L20.0051 22.414C19.9071 22.3166 19.7746 22.2618 19.6364 22.2618C19.4983 22.2618 19.3657 22.3166 19.2678 22.414L11.0017 30.6801C10.7404 30.9412 10.5232 31.2414 10.3628 31.5637C10.2023 31.886 10.1017 32.2239 10.0667 32.5582C10.0316 32.8925 10.0629 33.2165 10.1586 33.5119C10.2543 33.8072 10.4126 34.0679 10.6244 34.2792L10.7754 34.4301C10.9866 34.6419 11.2474 34.8003 11.5427 34.896C11.838 34.9917 12.1621 35.0229 12.4963 34.9878C12.8306 34.9528 13.1686 34.8522 13.4908 34.6917C13.8131 34.5313 14.1133 34.3141 14.3743 34.0528L22.6404 25.7867C22.7379 25.6888 22.7927 25.5562 22.7927 25.4181C22.7927 25.2799 22.7379 25.1473 22.6404 25.0494Z" stroke="#FFD600" stroke-width="2"/>
</svg>
