<svg width="44" height="67" viewBox="0 0 44 67" fill="none" xmlns="http://www.w3.org/2000/svg">
<path d="M34.5046 41.3316C35.621 38.7459 37.6995 36.8695 38.8591 35.1938C44.7061 26.7402 44.3853 15.9018 37.7427 8.08208C31.3344 0.551042 19.6897 -1.2062 11.7395 3.93373C0.267554 11.3518 -2.92733 25.9181 6.65116 37.0954C9.33412 40.2145 10.617 42.7437 10.691 46.7477C10.7342 49.1325 12.1651 50.0802 14.4472 50.0864C18.9866 50.1115 23.5281 50.1115 28.0717 50.0864C30.6251 50.0739 33.0244 50.1492 33.3143 47.2309C33.5774 44.5323 33.9742 42.5658 34.5046 41.3316Z" stroke="#FFD600" stroke-width="2"/>
<path d="M27.5729 60.4102L30.3607 60.3412C30.6651 60.3341 30.9648 60.263 31.241 60.1324C31.5171 60.0018 31.7637 59.8146 31.9653 59.5823C32.1668 59.3501 32.319 59.078 32.4123 58.783C32.5055 58.4881 32.5378 58.1767 32.5071 57.8685L32.4023 56.7953C32.2501 55.264 31.4175 54.4962 29.9043 54.4921L13.9546 54.4858C13.3144 54.4863 12.6987 54.7358 12.2341 55.1828C11.7696 55.6299 11.4913 56.2406 11.4566 56.8894L11.4135 57.7241C11.3968 58.0489 11.4433 58.3737 11.5501 58.6799C11.657 58.9861 11.8222 59.2676 12.0361 59.508C12.2501 59.7485 12.5085 59.9431 12.7965 60.0808C13.0845 60.2184 13.3964 60.2962 13.714 60.3098L16.2675 60.4165C16.3664 60.4217 16.4603 60.4624 16.5325 60.5313C16.6047 60.6002 16.6507 60.6929 16.6622 60.793C17.0282 64.1653 18.6955 65.8995 21.6642 65.9957C25.0133 66.1024 27.2399 64.2071 27.2707 60.7177C27.2723 60.6367 27.3046 60.5594 27.361 60.502C27.4173 60.4447 27.4933 60.4118 27.5729 60.4102Z" stroke="#FFD600" stroke-width="2"/>
<path d="M9.9935 27.4368C12.8677 27.6816 15.7973 29.238 15.7912 32.3194C15.7829 35.3946 15.8158 38.6016 15.8898 41.9403C15.9227 43.3252 16.6197 43.9863 17.9807 43.9235L18.3569 43.9047C18.7531 43.8841 19.1268 43.7114 19.4027 43.4213C19.6786 43.1313 19.8361 42.7456 19.8434 42.342C19.905 38.1121 20.4972 32.4701 19.0786 29.0874C17.7134 25.8365 15.051 23.9788 11.0914 23.5144C9.7509 23.3554 8.96966 23.9537 8.74762 25.3093L8.68594 25.7235C8.65284 25.9245 8.66105 26.1304 8.71005 26.328C8.75906 26.5257 8.84779 26.7108 8.97065 26.8718C9.09351 27.0328 9.24785 27.1661 9.42389 27.2634C9.59994 27.3606 9.79389 27.4197 9.9935 27.4368Z" stroke="#FFD600" stroke-width="2"/>
<path d="M29.5409 29.3258C30.4866 28.3384 31.8497 27.7401 33.6301 27.5309C33.8772 27.5018 34.1151 27.4182 34.3271 27.2858C34.5392 27.1534 34.7202 26.9755 34.8577 26.7645C34.9951 26.5536 35.0857 26.3146 35.1229 26.0643C35.1602 25.814 35.1432 25.5585 35.0733 25.3155L35.0055 25.0708C34.6313 23.757 33.7822 23.2299 32.4582 23.4893C22.6022 25.4348 24.0207 33.562 23.9467 41.4257C23.9159 44.3628 28.1161 44.9967 28.0051 41.7458C27.9105 38.8965 27.9825 36.0556 28.221 33.2231C28.3772 31.3822 28.8172 30.0831 29.5409 29.3258Z" stroke="#FFD600" stroke-width="2"/>
</svg>
