<svg width="67" height="54" viewBox="0 0 67 54" fill="none" xmlns="http://www.w3.org/2000/svg">
<path d="M53.5453 3.85133C53.5152 2.09604 52.0846 1.03205 50.4135 1.03205C34.9726 0.99999 19.5336 0.991988 4.09676 1.00802C1.6021 1.01403 1.08512 3.02176 1.08512 5.22187C1.09314 15.954 1.06508 26.688 1.00096 37.4241C0.982922 40.7724 1.18131 42.5337 4.99845 42.5277C14.2037 42.5237 23.3127 42.5217 32.3256 42.5217C32.5064 42.5218 32.6851 42.4862 32.8512 42.4171C33.0174 42.3479 33.1677 42.2466 33.2934 42.1189L53.2868 22.0654C53.5601 21.7918 53.7137 21.422 53.7136 21.0375C53.7136 15.419 53.6575 9.69025 53.5453 3.85133Z" stroke="#FFD600" stroke-width="2"/>
<path d="M65.7407 26.7629C65.9081 26.5944 66.0017 26.3662 66.0009 26.1287C66.0001 25.8912 65.9049 25.6637 65.7363 25.4963L61.2321 21.0233C61.1486 20.9404 61.0497 20.8748 60.9409 20.8301C60.832 20.7855 60.7154 20.7628 60.5978 20.7632C60.4802 20.7636 60.3639 20.7872 60.2553 20.8326C60.1468 20.878 60.0483 20.9443 59.9654 21.0278L57.6781 23.3311C57.5107 23.4997 57.4172 23.7278 57.418 23.9653C57.4188 24.2029 57.514 24.4303 57.6825 24.5977L62.1868 29.0707C62.2703 29.1536 62.3692 29.2192 62.4781 29.2638C62.5869 29.3085 62.7034 29.3312 62.8211 29.3308C62.9387 29.3304 63.0551 29.3068 63.1636 29.2614C63.2721 29.216 63.3706 29.1497 63.4535 29.0662L65.7407 26.7629Z" stroke="#FFD600" stroke-width="2"/>
<path d="M59.5087 33.0179C59.5889 32.9374 59.6525 32.8418 59.6959 32.7367C59.7392 32.6316 59.7614 32.519 59.7612 32.4053C59.761 32.2917 59.7384 32.1791 59.6948 32.0742C59.6511 31.9692 59.5871 31.8739 59.5066 31.7937L54.959 27.262C54.8785 27.1817 54.783 27.1181 54.6779 27.0748C54.5728 27.0315 54.4602 27.0093 54.3465 27.0095C54.2328 27.0097 54.1203 27.0323 54.0153 27.076C53.9104 27.1197 53.815 27.1836 53.7348 27.2641L40.9205 40.1233C40.8402 40.2038 40.7766 40.2993 40.7333 40.4044C40.69 40.5095 40.6678 40.6221 40.668 40.7358C40.6682 40.8495 40.6908 40.962 40.7345 41.067C40.7781 41.1719 40.8421 41.2672 40.9226 41.3475L45.4701 45.8792C45.5507 45.9594 45.6462 46.023 45.7513 46.0663C45.8564 46.1096 45.969 46.1318 46.0827 46.1316C46.1964 46.1314 46.3089 46.1088 46.4138 46.0651C46.5188 46.0215 46.6141 45.9575 46.6943 45.877L59.5087 33.0179Z" stroke="#FFD600" stroke-width="2"/>
<path d="M35.4752 45.4192C35.1861 45.6859 35.0116 46.0544 34.9883 46.4471L34.7178 50.8774C34.7027 51.1203 34.7461 51.3633 34.8444 51.586C34.9426 51.8086 35.0929 52.0045 35.2825 52.157C35.4722 52.3096 35.6956 52.4143 35.9342 52.4626C36.1727 52.5109 36.4194 52.5012 36.6535 52.4343L41.6849 51.0096C41.9369 50.9381 42.1662 50.8026 42.3505 50.6164C42.5348 50.4302 42.6679 50.1995 42.7368 49.9467C42.8058 49.694 42.8083 49.4277 42.744 49.1737C42.6798 48.9196 42.551 48.6866 42.3702 48.497L38.6192 44.5596C38.3445 44.2714 37.9677 44.1025 37.5698 44.089C37.172 44.0755 36.7847 44.2185 36.4911 44.4874L35.4752 45.4192Z" stroke="#FFD600" stroke-width="2"/>
<path d="M30.7025 48.7675C30.7025 48.1426 30.4542 47.5432 30.0123 47.1013C29.5704 46.6594 28.971 46.4111 28.3461 46.4111H4.32515C3.70019 46.4111 3.10083 46.6594 2.65892 47.1013C2.21701 47.5432 1.96875 48.1426 1.96875 48.7675V48.8757C1.96875 49.5007 2.21701 50.1001 2.65892 50.542C3.10083 50.9839 3.70019 51.2322 4.32515 51.2322H28.3461C28.971 51.2322 29.5704 50.9839 30.0123 50.542C30.4542 50.1001 30.7025 49.5007 30.7025 48.8757V48.7675Z" stroke="#FFD600" stroke-width="2"/>
<path d="M24.3621 8.71513C24.4309 8.46879 24.4505 8.2113 24.4198 7.95738C24.389 7.70346 24.3086 7.45809 24.1831 7.23525C24.0575 7.01242 23.8893 6.8165 23.688 6.65867C23.4868 6.50085 23.2563 6.38423 23.01 6.31544L22.9058 6.28635C22.6594 6.21756 22.4019 6.19798 22.148 6.22871C21.8941 6.25943 21.6487 6.33987 21.4259 6.46543C21.2031 6.59099 21.0071 6.7592 20.8493 6.96048C20.6915 7.16176 20.5749 7.39216 20.5061 7.63851L17.3862 18.8128C17.3174 19.0592 17.2978 19.3166 17.3286 19.5706C17.3593 19.8245 17.4397 20.0699 17.5652 20.2927C17.6908 20.5155 17.859 20.7115 18.0603 20.8693C18.2616 21.0271 18.4919 21.1437 18.7383 21.2125L18.8425 21.2416C19.0889 21.3104 19.3464 21.33 19.6003 21.2992C19.8542 21.2685 20.0996 21.1881 20.3224 21.0625C20.5453 20.937 20.7412 20.7687 20.899 20.5675C21.0568 20.3662 21.1734 20.1358 21.2422 19.8894L24.3621 8.71513Z" stroke="#FFD600" stroke-width="2"/>
<path d="M29.3022 13.83L27.0178 16.8897C26.7899 17.195 26.6829 17.5738 26.7172 17.9533C26.7516 18.3328 26.9251 18.6862 27.2042 18.9455L27.6009 19.3122C27.7904 19.4884 28.0149 19.6228 28.2596 19.7063C28.5044 19.7898 28.7639 19.8206 29.0211 19.7968C29.2783 19.7729 29.5274 19.6949 29.752 19.5679C29.9765 19.4409 30.1715 19.2677 30.324 19.0598L33.7805 14.3409C34.2854 13.6476 34.2574 12.9784 33.6963 12.3332L30.1197 8.2215C29.3302 7.3158 28.5146 7.29172 27.6731 8.14933L27.3665 8.46192C26.6091 9.23136 26.575 10.0309 27.2643 10.8604L29.2841 13.301C29.4284 13.4733 29.4344 13.6496 29.3022 13.83Z" stroke="#FFD600" stroke-width="2"/>
<path d="M12.4457 14.2267C12.3592 14.127 12.3141 13.9979 12.3197 13.8661C12.3253 13.7342 12.3811 13.6094 12.4758 13.5174C13.5398 12.4714 15.265 10.5358 14.6819 8.97887C14.3613 8.12126 13.5838 7.7105 12.3495 7.74657C12.253 7.74843 12.1582 7.77028 12.0712 7.81067C11.9842 7.85105 11.9071 7.90908 11.8446 7.98102C10.458 9.53192 9.21566 11.197 8.11761 12.9764C7.49244 13.9863 7.58463 14.916 8.39414 15.7656C9.24774 16.6593 10.3438 17.8375 11.6823 19.3002C11.9313 19.5727 12.27 19.7467 12.6372 19.7908C13.0044 19.8349 13.3757 19.7462 13.684 19.5406L14.1709 19.216C14.3784 19.0765 14.5538 18.8943 14.6854 18.6817C14.817 18.4691 14.9018 18.2309 14.9342 17.983C14.9666 17.735 14.9459 17.483 14.8734 17.2437C14.8008 17.0045 14.6782 16.7834 14.5136 16.5951L12.4457 14.2267Z" stroke="#FFD600" stroke-width="2"/>
</svg>
