<svg width="57" height="67" viewBox="0 0 57 67" fill="none" xmlns="http://www.w3.org/2000/svg">
<path d="M40.5891 52.7807L44.9063 64.3851C45.0225 64.6974 45.2011 64.9828 45.4313 65.2237C45.6616 65.4646 45.9385 65.656 46.2453 65.7862C46.552 65.9164 46.8821 65.9827 47.2153 65.981C47.5486 65.9792 47.878 65.9095 48.1833 65.7761L48.7222 65.5443C49.1973 65.3379 49.5749 64.9567 49.7767 64.4797C49.9784 64.0026 49.9891 63.4662 49.8062 62.9815L44.9251 50.055C44.8859 49.9494 44.8793 49.8344 44.9061 49.7249C44.9329 49.6155 44.9919 49.5166 45.0754 49.441C53.8038 41.546 57.3064 32.0657 54.161 20.2921C54.1378 20.2051 54.0904 20.1264 54.0243 20.0652C53.9582 20.004 53.8761 19.9628 53.7876 19.9464C53.699 19.93 53.6076 19.9391 53.5239 19.9726C53.4403 20.006 53.3679 20.0625 53.3151 20.1354C52.1037 21.8105 50.4641 22.7149 48.3964 22.8486C48.1666 22.8611 48.0727 22.9802 48.1144 23.2057C49.4177 30.1692 48.0894 36.0779 44.1293 40.9319C35.5012 51.5087 20.0683 51.2267 11.7598 40.4682C6.47764 33.6322 6.22702 24.0203 11.1457 16.7895C16.2754 9.23699 23.8947 6.40899 34.0036 8.30546C34.1916 8.33888 34.3044 8.2616 34.342 8.07363C34.7389 6.08526 35.7665 4.48746 37.4248 3.28023C37.4883 3.23495 37.5377 3.1728 37.5674 3.10073C37.597 3.02866 37.6059 2.94951 37.5929 2.87214C37.5799 2.79477 37.5456 2.72222 37.4937 2.66261C37.4419 2.603 37.3747 2.55867 37.2995 2.53459C27.2198 -0.631767 18.1928 1.10179 10.2184 7.73527C4.59163 12.4159 1.32708 19.5966 1.02632 26.9903C0.642013 36.527 4.46629 44.3698 12.4991 50.5187C12.637 50.6231 12.6746 50.7589 12.6119 50.926L8.15689 62.9001C7.97242 63.3947 7.98543 63.9413 8.19323 64.4257C8.40102 64.9102 8.78757 65.2952 9.27224 65.5004L9.7735 65.7072C11.3483 66.3714 12.4323 65.9056 13.0255 64.3099L17.067 53.401C17.0842 53.3559 17.1103 53.3147 17.1439 53.2799C17.1774 53.2452 17.2177 53.2176 17.2622 53.1989C17.3067 53.1801 17.3546 53.1706 17.4029 53.1709C17.4512 53.1712 17.4989 53.1812 17.5432 53.2005C20.2459 54.3743 23.0718 55.0448 26.0209 55.2118C26.1201 55.2167 26.2135 55.26 26.2813 55.3325C26.3492 55.405 26.3861 55.5011 26.3844 55.6003L26.3593 63.2322C26.3509 64.8362 27.1467 65.6905 28.7466 65.7949L29.4609 65.845C29.7142 65.8622 29.9684 65.827 30.2076 65.7416C30.4469 65.6562 30.6661 65.5224 30.8517 65.3485C31.0373 65.1746 31.1854 64.9643 31.2868 64.7307C31.3881 64.4971 31.4406 64.2451 31.4409 63.9903L31.4221 55.5565C31.4221 55.2808 31.5579 55.1262 31.8294 55.0928C34.7117 54.7252 37.4457 53.8835 40.0314 52.5676C40.2988 52.4298 40.4847 52.5008 40.5891 52.7807Z" stroke="#FFD600" stroke-width="2"/>
<path d="M42.9459 16.7833C44.6126 17.1968 46.4297 18.3811 48.0149 18.6317C48.6624 18.7362 49.1491 18.6276 49.4749 18.3059C51.5176 16.2799 53.485 14.302 55.3773 12.3721C55.5622 12.1844 55.697 11.9533 55.7692 11.7C55.8415 11.4466 55.849 11.1792 55.791 10.9222C55.733 10.6652 55.6114 10.4269 55.4373 10.2292C55.2632 10.0315 55.0422 9.88065 54.7946 9.79057L49.6002 7.89201C49.5252 7.86429 49.4569 7.82156 49.3997 7.76653C49.3425 7.7115 49.2977 7.6454 49.2681 7.57245L47.4322 2.69759C47.3264 2.41725 47.1519 2.16793 46.9248 1.97244C46.6977 1.77695 46.4252 1.64153 46.1322 1.57857C45.8393 1.51561 45.5352 1.52713 45.2478 1.61206C44.9604 1.69699 44.699 1.85263 44.4873 2.06474L38.4971 8.06118C38.4166 8.14156 38.3609 8.24328 38.3365 8.35432C38.3121 8.46536 38.32 8.58107 38.3592 8.68777L39.838 12.6791C39.8957 12.8307 39.908 12.9959 39.8736 13.1549C39.8391 13.3139 39.7593 13.4598 39.6437 13.5752L30.3076 22.8863C30.2479 22.9458 30.1748 22.9895 30.0949 23.0136C30.015 23.0377 29.9309 23.0413 29.8502 23.0241C23.6783 21.6957 19.9375 29.196 25.0317 32.5858C29.2925 35.418 34.4869 31.6898 33.2212 26.6834C33.1829 26.5309 33.1847 26.3715 33.2265 26.2209C33.2683 26.0703 33.3485 25.9338 33.4593 25.825L42.3631 16.9399C42.5261 16.777 42.7203 16.7248 42.9459 16.7833Z" stroke="#FFD600" stroke-width="2"/>
<path d="M23.9907 36.7526C22.065 35.867 20.6552 34.4113 19.7613 32.3853C17.3426 26.9026 19.8803 21.1067 25.5447 18.9951C26.7226 18.5565 27.9946 18.6003 29.2791 18.5314C29.5014 18.5194 29.713 18.4259 29.8744 18.2683L34.3983 13.7443C34.4386 13.7037 34.4682 13.6538 34.4844 13.599C34.5006 13.5441 34.5029 13.4861 34.4911 13.4302C34.4793 13.3742 34.4538 13.3221 34.4168 13.2785C34.3798 13.2349 34.3325 13.2012 34.2793 13.1804C18.9717 7.03354 6.15178 24.459 15.1872 37.5922C19.8177 44.3281 28.9094 46.4209 36.0776 42.3292C43.0703 38.3441 45.6268 29.6158 42.945 22.2596C42.9215 22.1969 42.8827 22.1411 42.8321 22.0972C42.7815 22.0533 42.7207 22.0229 42.6553 22.0085C42.5899 21.9942 42.5219 21.9965 42.4576 22.0152C42.3932 22.0339 42.3347 22.0684 42.2871 22.1155L37.5752 26.8713C37.5118 26.9349 37.4619 27.0109 37.4285 27.0949C37.3951 27.1789 37.3789 27.2691 37.3809 27.3601C37.5939 34.6911 30.9396 39.9419 23.9907 36.7526Z" stroke="#FFD600" stroke-width="2"/>
</svg>
