<svg width="72" height="72" viewBox="0 0 72 72" fill="none" xmlns="http://www.w3.org/2000/svg">
<path d="M71 36C71 26.7174 67.3125 17.815 60.7487 11.2513C54.185 4.68749 45.2826 1 36 1C26.7174 1 17.815 4.68749 11.2513 11.2513C4.68749 17.815 1 26.7174 1 36C1 45.2826 4.68749 54.185 11.2513 60.7487C17.815 67.3125 26.7174 71 36 71C45.2826 71 54.185 67.3125 60.7487 60.7487C67.3125 54.185 71 45.2826 71 36Z" stroke="#FFD600" stroke-width="2"/>
<path d="M69.9341 35.9857C69.9341 26.9858 66.3589 18.3544 59.995 11.9905C53.631 5.6266 44.9997 2.05139 35.9998 2.05139C26.9998 2.05139 18.3685 5.6266 12.0046 11.9905C5.64064 18.3544 2.06543 26.9858 2.06543 35.9857C2.06543 44.9857 5.64064 53.617 12.0046 59.9809C18.3685 66.3449 26.9998 69.9201 35.9998 69.9201C44.9997 69.9201 53.631 66.3449 59.995 59.9809C66.3589 53.617 69.9341 44.9857 69.9341 35.9857Z" stroke="#FFD600" stroke-width="2"/>
<path d="M63.0495 35.9929C63.0495 28.8188 60.1996 21.9384 55.1267 16.8656C50.0538 11.7927 43.1735 8.94275 35.9994 8.94275C28.8252 8.94275 21.9449 11.7927 16.872 16.8656C11.7991 21.9384 8.94922 28.8188 8.94922 35.9929C8.94922 43.167 11.7991 50.0473 16.872 55.1202C21.9449 60.1931 28.8252 63.043 35.9994 63.043C43.1735 63.043 50.0538 60.1931 55.1267 55.1202C60.1996 50.0473 63.0495 43.167 63.0495 35.9929Z" stroke="#FFD600" stroke-width="2"/>
<path d="M68.0694 35.9928C68.0694 35.5369 67.8883 35.0995 67.5658 34.7771C67.2434 34.4547 66.8061 34.2736 66.3501 34.2736C65.8942 34.2736 65.4568 34.4547 65.1344 34.7771C64.812 35.0995 64.6309 35.5369 64.6309 35.9928C64.6309 36.4488 64.812 36.8861 65.1344 37.2085C65.4568 37.531 65.8942 37.7121 66.3501 37.7121C66.8061 37.7121 67.2434 37.531 67.5658 37.2085C67.8883 36.8861 68.0694 36.4488 68.0694 35.9928Z" stroke="#FFD600" stroke-width="2"/>
<path d="M7.36574 35.9965C7.36574 35.5424 7.18535 35.1069 6.86426 34.7858C6.54316 34.4647 6.10767 34.2843 5.65358 34.2843C5.19948 34.2843 4.76398 34.4647 4.44289 34.7858C4.12179 35.1069 3.94141 35.5424 3.94141 35.9965C3.94141 36.4505 4.12179 36.886 4.44289 37.2071C4.76398 37.5282 5.19948 37.7086 5.65358 37.7086C6.10767 37.7086 6.54316 37.5282 6.86426 37.2071C7.18535 36.886 7.36574 36.4505 7.36574 35.9965Z" stroke="#FFD600" stroke-width="2"/>
<path d="M69.9341 35.9857C69.9341 44.9857 66.3589 53.617 59.995 59.9809C53.631 66.3449 44.9997 69.9201 35.9998 69.9201C26.9998 69.9201 18.3685 66.3449 12.0046 59.9809C5.64064 53.617 2.06543 44.9857 2.06543 35.9857C2.06543 26.9858 5.64064 18.3544 12.0046 11.9905C18.3685 5.6266 26.9998 2.05139 35.9998 2.05139C44.9997 2.05139 53.631 5.6266 59.995 11.9905C66.3589 18.3544 69.9341 26.9858 69.9341 35.9857ZM63.0499 35.9928C63.0499 28.8187 60.2 21.9384 55.1271 16.8655C50.0542 11.7926 43.1739 8.94269 35.9998 8.94269C28.8256 8.94269 21.9453 11.7926 16.8724 16.8655C11.7995 21.9384 8.94963 28.8187 8.94963 35.9928C8.94963 43.167 11.7995 50.0473 16.8724 55.1202C21.9453 60.193 28.8256 63.043 35.9998 63.043C43.1739 63.043 50.0542 60.193 55.1271 55.1202C60.2 50.0473 63.0499 43.167 63.0499 35.9928ZM68.0692 35.9928C68.0692 35.5369 67.888 35.0995 67.5656 34.7771C67.2432 34.4547 66.8059 34.2736 66.3499 34.2736C65.8939 34.2736 65.4566 34.4547 65.1342 34.7771C64.8118 35.0995 64.6306 35.5369 64.6306 35.9928C64.6306 36.4488 64.8118 36.8861 65.1342 37.2085C65.4566 37.531 65.8939 37.7121 66.3499 37.7121C66.8059 37.7121 67.2432 37.531 67.5656 37.2085C67.888 36.8861 68.0692 36.4488 68.0692 35.9928ZM7.36533 35.9964C7.36533 35.5423 7.18494 35.1068 6.86385 34.7857C6.54276 34.4646 6.10727 34.2842 5.65317 34.2842C5.19908 34.2842 4.76358 34.4646 4.44248 34.7857C4.12139 35.1068 3.941 35.5423 3.941 35.9964C3.941 36.4505 4.12139 36.886 4.44248 37.2071C4.76358 37.5282 5.19908 37.7085 5.65317 37.7085C6.10727 37.7085 6.54276 37.5282 6.86385 37.2071C7.18494 36.886 7.36533 36.4505 7.36533 35.9964Z" fill="#2A2B51"/>
<path d="M51.5579 30.3089C51.5579 29.6966 51.3146 29.1093 50.8816 28.6763C50.4486 28.2433 49.8613 28 49.2489 28H22.3089C21.6966 28 21.1093 28.2433 20.6763 28.6763C20.2433 29.1093 20 29.6966 20 30.3089V46.4715C20 47.0839 20.2433 47.6712 20.6763 48.1042C21.1093 48.5372 21.6966 48.7805 22.3089 48.7805H49.2489C49.8613 48.7805 50.4486 48.5372 50.8816 48.1042C51.3146 47.6712 51.5579 47.0839 51.5579 46.4715V30.3089Z" fill="#2A2B51" stroke="#FFD600" stroke-width="2"/>
<path d="M49.6853 29.7799C49.672 29.755 49.6538 29.7331 49.6318 29.7153C49.6099 29.6975 49.5847 29.6843 49.5576 29.6763C49.5305 29.6684 49.502 29.6659 49.474 29.6691C49.4459 29.6722 49.4188 29.6809 49.3941 29.6946L35.8601 37.2005C35.8286 37.2179 35.7931 37.227 35.7571 37.227C35.7211 37.227 35.6856 37.2179 35.6541 37.2005L22.1237 29.6911C22.0774 29.6647 22.0229 29.6567 21.9709 29.6685C21.919 29.6804 21.8734 29.7112 21.8431 29.755L21.5233 30.2239C21.5067 30.2483 21.4954 30.2758 21.49 30.3048C21.4845 30.3337 21.4852 30.3635 21.4919 30.3922C21.4985 30.421 21.5111 30.448 21.5288 30.4716C21.5464 30.4952 21.5688 30.5149 21.5944 30.5294L35.647 38.3514C35.6785 38.3688 35.714 38.3779 35.75 38.3779C35.786 38.3779 35.8215 38.3688 35.853 38.3514L49.8665 30.5472C49.9152 30.5195 49.951 30.4739 49.9663 30.42C49.9816 30.3662 49.9751 30.3085 49.9482 30.2594L49.6853 29.7799Z" fill="#2A2B51" stroke="#FFD600" stroke-width="2"/>
<path d="M51.5579 46.4715C51.5579 47.0839 51.3146 47.6712 50.8816 48.1042C50.4486 48.5372 49.8613 48.7805 49.2489 48.7805H22.3089C21.6966 48.7805 21.1093 48.5372 20.6763 48.1042C20.2433 47.6712 20 47.0839 20 46.4715V30.3089C20 29.6966 20.2433 29.1093 20.6763 28.6763C21.1093 28.2433 21.6966 28 22.3089 28H49.2489C49.8613 28 50.4486 28.2433 50.8816 28.6763C51.3146 29.1093 51.5579 29.6966 51.5579 30.3089V46.4715ZM49.6859 29.7797C49.6725 29.7548 49.6543 29.7328 49.6324 29.7151C49.6104 29.6973 49.5852 29.684 49.5581 29.6761C49.531 29.6682 49.5025 29.6657 49.4745 29.6689C49.4464 29.672 49.4193 29.6807 49.3946 29.6944L35.8606 37.2003C35.8291 37.2177 35.7937 37.2268 35.7576 37.2268C35.7216 37.2268 35.6861 37.2177 35.6546 37.2003L22.1242 29.6909C22.0779 29.6645 22.0234 29.6565 21.9715 29.6683C21.9195 29.6801 21.8739 29.711 21.8436 29.7548L21.5239 30.2237C21.5073 30.248 21.4959 30.2756 21.4905 30.3045C21.4851 30.3335 21.4857 30.3633 21.4924 30.392C21.4991 30.4207 21.5116 30.4477 21.5293 30.4714C21.5469 30.495 21.5693 30.5146 21.5949 30.5292L35.6475 38.3512C35.679 38.3686 35.7145 38.3777 35.7505 38.3777C35.7866 38.3777 35.822 38.3686 35.8535 38.3512L49.867 30.5469C49.9157 30.5193 49.9516 30.4737 49.9669 30.4198C49.9821 30.366 49.9756 30.3083 49.9487 30.2592L49.6859 29.7797Z" fill="#2A2B51"/>
</svg>
