<svg width="72" height="72" viewBox="0 0 72 72" fill="none" xmlns="http://www.w3.org/2000/svg">
<path d="M71 36C71 31.4037 70.0947 26.8525 68.3358 22.6061C66.5769 18.3597 63.9988 14.5013 60.7487 11.2513C57.4987 8.00121 53.6403 5.42313 49.3939 3.66422C45.1475 1.9053 40.5963 1 36 1C26.7174 1 17.815 4.68749 11.2513 11.2513C4.68749 17.815 1 26.7174 1 36C1 45.2826 4.68749 54.185 11.2513 60.7487C17.815 67.3125 26.7174 71 36 71C45.2826 71 54.185 67.3125 60.7487 60.7487C67.3125 54.185 71 45.2826 71 36Z" stroke="#FFD600" stroke-width="2"/>
<path d="M69.927 35.9857C69.927 26.9867 66.3522 18.3563 59.9889 11.993C53.6256 5.62977 44.9952 2.05493 35.9962 2.05493C26.9972 2.05493 18.3668 5.62977 12.0035 11.993C5.64027 18.3563 2.06543 26.9867 2.06543 35.9857C2.06543 44.9847 5.64027 53.6151 12.0035 59.9784C18.3668 66.3417 26.9972 69.9165 35.9962 69.9165C44.9952 69.9165 53.6256 66.3417 59.9889 59.9784C66.3522 53.6151 69.927 44.9847 69.927 35.9857Z" stroke="#FFD600" stroke-width="2"/>
<path d="M63.0505 35.993C63.0505 28.8189 60.2006 21.9386 55.1277 16.8657C50.0548 11.7928 43.1745 8.94287 36.0003 8.94287C28.8262 8.94287 21.9459 11.7928 16.873 16.8657C11.8001 21.9386 8.9502 28.8189 8.9502 35.993C8.9502 43.1672 11.8001 50.0475 16.873 55.1203C21.9459 60.1932 28.8262 63.0431 36.0003 63.0431C43.1745 63.0431 50.0548 60.1932 55.1277 55.1203C60.2006 50.0475 63.0505 43.1672 63.0505 35.993Z" stroke="#FFD600" stroke-width="2"/>
<path d="M7.35988 35.9895C7.35988 35.5354 7.1795 35.0999 6.8584 34.7788C6.53731 34.4577 6.10181 34.2773 5.64771 34.2773C5.19362 34.2773 4.75812 34.4577 4.43703 34.7788C4.11593 35.0999 3.93555 35.5354 3.93555 35.9895C3.93555 36.4436 4.11593 36.8791 4.43703 37.2002C4.75812 37.5213 5.19362 37.7017 5.64771 37.7017C6.10181 37.7017 6.53731 37.5213 6.8584 37.2002C7.1795 36.8791 7.35988 36.4436 7.35988 35.9895Z" stroke="#FFD600" stroke-width="2"/>
<path d="M68.0675 35.9966C68.0675 35.5406 67.8863 35.1033 67.5639 34.7809C67.2415 34.4585 66.8042 34.2773 66.3482 34.2773C66.1224 34.2773 65.8988 34.3218 65.6902 34.4082C65.4817 34.4946 65.2921 34.6213 65.1325 34.7809C64.9728 34.9406 64.8462 35.1301 64.7598 35.3387C64.6734 35.5473 64.6289 35.7708 64.6289 35.9966C64.6289 36.2224 64.6734 36.446 64.7598 36.6546C64.8462 36.8632 64.9728 37.0527 65.1325 37.2123C65.2921 37.372 65.4817 37.4986 65.6902 37.585C65.8988 37.6714 66.1224 37.7159 66.3482 37.7159C66.8042 37.7159 67.2415 37.5348 67.5639 37.2123C67.8863 36.8899 68.0675 36.4526 68.0675 35.9966Z" stroke="#FFD600" stroke-width="2"/>
<path d="M38.8692 41.9356C34.9759 40.2696 32.0667 37.9181 29.7719 34.1634C29.6979 34.0411 29.6664 33.8978 29.6825 33.7557C29.6985 33.6137 29.7612 33.481 29.8607 33.3783C30.5037 32.7105 32.2478 30.8527 31.8464 29.8794C31.0957 28.0607 30.3391 26.2455 29.5766 24.4339C29.0046 23.0876 27.4204 23.4179 26.2908 23.6453C25.63 23.7803 25.0581 24.0763 24.575 24.5333C22.1915 26.7961 21.9535 30.4229 23.1577 33.3144C23.5603 34.2782 24.2861 35.5073 25.3352 37.0016C29.3812 42.7491 33.825 46.3546 40.7128 48.1378C42.0389 48.4812 43.1756 48.5664 44.1229 48.3936C46.4887 47.9602 49.0001 46.5038 49.4121 43.9178C49.7638 41.6834 49.675 41.7047 47.636 40.671C46.2317 39.9606 44.7824 39.2857 43.2881 38.6463C43.0701 38.5532 42.8276 38.5337 42.5975 38.5908C42.3674 38.6478 42.1622 38.7783 42.0129 38.9624L39.7856 41.7083C39.6783 41.8413 39.5305 41.9356 39.365 41.9766C39.1995 42.0177 39.0253 42.0033 38.8692 41.9356Z" stroke="#FFD600" stroke-width="2"/>
<path d="M69.927 35.9857C69.927 44.9847 66.3522 53.6151 59.9889 59.9784C53.6256 66.3417 44.9952 69.9165 35.9962 69.9165C26.9972 69.9165 18.3668 66.3417 12.0035 59.9784C5.64027 53.6151 2.06543 44.9847 2.06543 35.9857C2.06543 26.9867 5.64027 18.3563 12.0035 11.993C18.3668 5.62977 26.9972 2.05493 35.9962 2.05493C44.9952 2.05493 53.6256 5.62977 59.9889 11.993C66.3522 18.3563 69.927 26.9867 69.927 35.9857ZM63.0499 35.9928C63.0499 28.8187 60.2 21.9384 55.1271 16.8655C50.0542 11.7926 43.1739 8.94268 35.9998 8.94268C28.8256 8.94268 21.9453 11.7926 16.8724 16.8655C11.7995 21.9384 8.94962 28.8187 8.94962 35.9928C8.94962 43.167 11.7995 50.0473 16.8724 55.1202C21.9453 60.193 28.8256 63.043 35.9998 63.043C43.1739 63.043 50.0542 60.193 55.1271 55.1202C60.2 50.0473 63.0499 43.167 63.0499 35.9928ZM7.35823 35.9893C7.35823 35.5352 7.17784 35.0997 6.85675 34.7786C6.53566 34.4575 6.10016 34.2771 5.64606 34.2771C5.19197 34.2771 4.75647 34.4575 4.43538 34.7786C4.11428 35.0997 3.93389 35.5352 3.93389 35.9893C3.93389 36.4434 4.11428 36.8789 4.43538 37.2C4.75647 37.5211 5.19197 37.7014 5.64606 37.7014C6.10016 37.7014 6.53566 37.5211 6.85675 37.2C7.17784 36.8789 7.35823 36.4434 7.35823 35.9893ZM68.0656 35.9964C68.0656 35.5404 67.8845 35.1031 67.5621 34.7807C67.2396 34.4582 66.8023 34.2771 66.3464 34.2771C66.1206 34.2771 65.897 34.3216 65.6884 34.408C65.4798 34.4944 65.2903 34.621 65.1306 34.7807C64.971 34.9403 64.8444 35.1298 64.758 35.3384C64.6716 35.547 64.6271 35.7706 64.6271 35.9964C64.6271 36.2221 64.6716 36.4457 64.758 36.6543C64.8444 36.8629 64.971 37.0524 65.1306 37.2121C65.2903 37.3717 65.4798 37.4984 65.6884 37.5848C65.897 37.6712 66.1206 37.7156 66.3464 37.7156C66.8023 37.7156 67.2396 37.5345 67.5621 37.2121C67.8845 36.8897 68.0656 36.4523 68.0656 35.9964Z" fill="#2A2B51"/>
<path d="M29.7719 34.1634C32.0667 37.9181 34.9759 40.2696 38.8692 41.9356C39.0253 42.0033 39.1995 42.0177 39.365 41.9766C39.5305 41.9356 39.6783 41.8413 39.7856 41.7083L42.0129 38.9624C42.1622 38.7783 42.3674 38.6478 42.5975 38.5908C42.8276 38.5337 43.0701 38.5532 43.2881 38.6463C44.7824 39.2857 46.2317 39.9606 47.636 40.671C49.675 41.7047 49.7638 41.6834 49.4121 43.9178C49.0001 46.5038 46.4887 47.9602 44.1229 48.3936C43.1756 48.5664 42.0389 48.4812 40.7128 48.1378C33.825 46.3546 29.3812 42.7491 25.3352 37.0016C24.2861 35.5073 23.5603 34.2782 23.1577 33.3144C21.9535 30.4229 22.1915 26.7961 24.575 24.5333C25.0581 24.0763 25.63 23.7803 26.2908 23.6453C27.4204 23.4179 29.0046 23.0876 29.5766 24.4339C30.3391 26.2455 31.0957 28.0607 31.8464 29.8794C32.2478 30.8527 30.5037 32.7105 29.8607 33.3783C29.7612 33.481 29.6985 33.6137 29.6825 33.7557C29.6664 33.8978 29.6979 34.0411 29.7719 34.1634Z" fill="#2A2B51"/>
</svg>
