<svg width="72" height="72" viewBox="0 0 72 72" fill="none" xmlns="http://www.w3.org/2000/svg">
<path d="M71 36C71 26.7174 67.3125 17.815 60.7487 11.2513C54.185 4.68749 45.2826 1 36 1C26.7174 1 17.815 4.68749 11.2513 11.2513C4.68749 17.815 1 26.7174 1 36C1 45.2826 4.68749 54.185 11.2513 60.7487C17.815 67.3125 26.7174 71 36 71C45.2826 71 54.185 67.3125 60.7487 60.7487C67.3125 54.185 71 45.2826 71 36Z" stroke="#FFD600" stroke-width="2"/>
<path d="M69.9341 35.9857C69.9341 26.9858 66.3589 18.3544 59.995 11.9905C53.631 5.6266 44.9997 2.05139 35.9998 2.05139C26.9998 2.05139 18.3685 5.6266 12.0046 11.9905C5.64064 18.3544 2.06543 26.9858 2.06543 35.9857C2.06543 44.9857 5.64064 53.617 12.0046 59.9809C18.3685 66.3449 26.9998 69.9201 35.9998 69.9201C44.9997 69.9201 53.631 66.3449 59.995 59.9809C66.3589 53.617 69.9341 44.9857 69.9341 35.9857Z" stroke="#FFD600" stroke-width="2"/>
<path d="M63.0495 35.9929C63.0495 28.8188 60.1996 21.9384 55.1267 16.8656C50.0538 11.7927 43.1735 8.94275 35.9994 8.94275C28.8252 8.94275 21.9449 11.7927 16.872 16.8656C11.7991 21.9384 8.94922 28.8188 8.94922 35.9929C8.94922 43.167 11.7991 50.0473 16.872 55.1202C21.9449 60.1931 28.8252 63.043 35.9994 63.043C43.1735 63.043 50.0538 60.1931 55.1267 55.1202C60.1996 50.0473 63.0495 43.167 63.0495 35.9929Z" stroke="#FFD600" stroke-width="2"/>
<path d="M68.0694 35.9928C68.0694 35.5369 67.8883 35.0995 67.5658 34.7771C67.2434 34.4547 66.8061 34.2736 66.3501 34.2736C65.8942 34.2736 65.4568 34.4547 65.1344 34.7771C64.812 35.0995 64.6309 35.5369 64.6309 35.9928C64.6309 36.4488 64.812 36.8861 65.1344 37.2085C65.4568 37.531 65.8942 37.7121 66.3501 37.7121C66.8061 37.7121 67.2434 37.531 67.5658 37.2085C67.8883 36.8861 68.0694 36.4488 68.0694 35.9928Z" stroke="#FFD600" stroke-width="2"/>
<path d="M7.36574 35.9965C7.36574 35.5424 7.18535 35.1069 6.86426 34.7858C6.54316 34.4647 6.10767 34.2843 5.65358 34.2843C5.19948 34.2843 4.76398 34.4647 4.44289 34.7858C4.12179 35.1069 3.94141 35.5424 3.94141 35.9965C3.94141 36.4505 4.12179 36.886 4.44289 37.2071C4.76398 37.5282 5.19948 37.7086 5.65358 37.7086C6.10767 37.7086 6.54316 37.5282 6.86426 37.2071C7.18535 36.886 7.36574 36.4505 7.36574 35.9965Z" stroke="#FFD600" stroke-width="2"/>
<path d="M69.9341 35.9857C69.9341 44.9857 66.3589 53.617 59.995 59.9809C53.631 66.3449 44.9997 69.9201 35.9998 69.9201C26.9998 69.9201 18.3685 66.3449 12.0046 59.9809C5.64064 53.617 2.06543 44.9857 2.06543 35.9857C2.06543 26.9858 5.64064 18.3544 12.0046 11.9905C18.3685 5.6266 26.9998 2.05139 35.9998 2.05139C44.9997 2.05139 53.631 5.6266 59.995 11.9905C66.3589 18.3544 69.9341 26.9858 69.9341 35.9857ZM63.0499 35.9928C63.0499 28.8187 60.2 21.9384 55.1271 16.8655C50.0542 11.7926 43.1739 8.94269 35.9998 8.94269C28.8256 8.94269 21.9453 11.7926 16.8724 16.8655C11.7995 21.9384 8.94963 28.8187 8.94963 35.9928C8.94963 43.167 11.7995 50.0473 16.8724 55.1202C21.9453 60.193 28.8256 63.043 35.9998 63.043C43.1739 63.043 50.0542 60.193 55.1271 55.1202C60.2 50.0473 63.0499 43.167 63.0499 35.9928ZM68.0692 35.9928C68.0692 35.5369 67.888 35.0995 67.5656 34.7771C67.2432 34.4547 66.8059 34.2736 66.3499 34.2736C65.8939 34.2736 65.4566 34.4547 65.1342 34.7771C64.8118 35.0995 64.6306 35.5369 64.6306 35.9928C64.6306 36.4488 64.8118 36.8861 65.1342 37.2085C65.4566 37.531 65.8939 37.7121 66.3499 37.7121C66.8059 37.7121 67.2432 37.531 67.5656 37.2085C67.888 36.8861 68.0692 36.4488 68.0692 35.9928ZM7.36533 35.9964C7.36533 35.5423 7.18494 35.1068 6.86385 34.7857C6.54276 34.4646 6.10727 34.2842 5.65317 34.2842C5.19908 34.2842 4.76358 34.4646 4.44248 34.7857C4.12139 35.1068 3.941 35.5423 3.941 35.9964C3.941 36.4505 4.12139 36.886 4.44248 37.2071C4.76358 37.5282 5.19908 37.7085 5.65317 37.7085C6.10727 37.7085 6.54276 37.5282 6.86385 37.2071C7.18494 36.886 7.36533 36.4505 7.36533 35.9964Z" fill="#2A2B51"/>
<path d="M34.2901 37.7251C34.2956 37.7263 34.2999 37.7292 34.3032 37.734C36.939 41.5643 39.5737 45.3925 42.2073 49.2185C42.2102 49.2226 42.2139 49.2259 42.2182 49.2282C42.2226 49.2305 42.2273 49.2316 42.2321 49.2316H50.6547C50.6576 49.2317 50.6604 49.2309 50.6629 49.2295C50.6654 49.228 50.6674 49.2259 50.6687 49.2234C50.6701 49.2209 50.6707 49.218 50.6706 49.2152C50.6704 49.2123 50.6695 49.2095 50.6678 49.2072L39.0022 32.2596C38.9993 32.2554 38.9979 32.2504 38.9983 32.2454C38.9986 32.2403 39.0006 32.2355 39.0039 32.2316L49.6454 19.8511C49.6591 19.8351 49.6553 19.827 49.6341 19.827L47.2387 19.8274C47.221 19.8274 47.2062 19.8341 47.1944 19.8476L37.9145 30.6414C37.9129 30.6434 37.9108 30.645 37.9084 30.646C37.906 30.647 37.9035 30.6475 37.9009 30.6473C37.8983 30.6472 37.8958 30.6465 37.8936 30.6452C37.8913 30.6439 37.8894 30.6421 37.888 30.64L30.4534 19.8394C30.4509 19.8357 30.4475 19.8327 30.4435 19.8306C30.4395 19.8285 30.435 19.8274 30.4304 19.8274L22.0018 19.827C21.9995 19.827 21.9972 19.8276 21.9952 19.8288C21.9932 19.83 21.9916 19.8317 21.9905 19.8338C21.9894 19.8358 21.9889 19.8381 21.989 19.8404C21.9891 19.8427 21.9899 19.8449 21.9912 19.8469L33.1894 36.1176C33.1922 36.1216 33.1936 36.1265 33.1933 36.1314C33.1931 36.1364 33.1912 36.1411 33.188 36.1448L21.9607 49.2125C21.9593 49.2142 21.9584 49.2163 21.9581 49.2184C21.9578 49.2206 21.9582 49.2228 21.9591 49.2248C21.96 49.2268 21.9615 49.2285 21.9633 49.2297C21.9652 49.2309 21.9673 49.2316 21.9695 49.2316H24.3699C24.3843 49.2316 24.3962 49.2261 24.4057 49.215L34.2788 37.7286C34.2802 37.7271 34.2819 37.7259 34.284 37.7253C34.286 37.7246 34.2881 37.7246 34.2901 37.7251Z" stroke="#FFD600" stroke-width="2"/>
<path d="M43.2219 47.307C43.223 47.3086 43.2245 47.3099 43.2262 47.3108C43.2279 47.3117 43.2298 47.3122 43.2318 47.3123H47.0104C47.0126 47.3123 47.0149 47.3117 47.0168 47.3105C47.0188 47.3094 47.0204 47.3077 47.0214 47.3057C47.0225 47.3036 47.023 47.3014 47.0228 47.2991C47.0227 47.2968 47.0219 47.2947 47.0206 47.2928L29.4387 21.7493C29.4376 21.7477 29.4361 21.7464 29.4344 21.7455C29.4326 21.7446 29.4307 21.7441 29.4288 21.744H25.6502C25.6479 21.744 25.6457 21.7446 25.6437 21.7458C25.6418 21.7469 25.6402 21.7486 25.6391 21.7506C25.6381 21.7526 25.6376 21.7549 25.6377 21.7572C25.6379 21.7595 25.6386 21.7616 25.6399 21.7635L43.2219 47.307Z" stroke="#FFD600" stroke-width="2"/>
<path d="M34.3161 37.755C34.314 37.7545 34.3119 37.7546 34.3099 37.7552C34.3079 37.7558 34.3061 37.757 34.3047 37.7586L24.4108 49.2642C24.4013 49.2753 24.3894 49.2809 24.3749 49.2809H21.9696C21.9674 49.2809 21.9652 49.2802 21.9633 49.279C21.9615 49.2778 21.96 49.2761 21.9591 49.2741C21.9582 49.2721 21.9578 49.2699 21.9581 49.2677C21.9584 49.2655 21.9593 49.2634 21.9607 49.2617L33.2116 36.1721C33.2148 36.1684 33.2167 36.1636 33.2169 36.1587C33.2172 36.1537 33.2158 36.1489 33.213 36.1448L21.9912 19.8468C21.9899 19.8449 21.9892 19.8426 21.9891 19.8403C21.989 19.838 21.9895 19.8357 21.9906 19.8336C21.9917 19.8316 21.9933 19.8299 21.9953 19.8287C21.9973 19.8275 21.9996 19.8269 22.0019 19.8269L30.4482 19.8273C30.4528 19.8273 30.4573 19.8283 30.4613 19.8305C30.4654 19.8326 30.4688 19.8356 30.4713 19.8393L37.9215 30.658C37.9229 30.6602 37.9248 30.662 37.9271 30.6632C37.9293 30.6645 37.9318 30.6653 37.9344 30.6654C37.937 30.6655 37.9396 30.6651 37.942 30.664C37.9443 30.663 37.9464 30.6614 37.9481 30.6595L47.2475 19.8475C47.2593 19.834 47.2741 19.8273 47.2919 19.8273L49.6923 19.8269C49.7136 19.8269 49.7174 19.835 49.7036 19.851L39.0398 32.2523C39.0364 32.2562 39.0344 32.261 39.0341 32.2661C39.0338 32.2712 39.0351 32.2762 39.038 32.2804L50.7282 49.2564C50.7298 49.2588 50.7308 49.2615 50.7309 49.2644C50.7311 49.2673 50.7305 49.2701 50.7291 49.2726C50.7278 49.2752 50.7257 49.2773 50.7232 49.2787C50.7208 49.2802 50.7179 49.2809 50.7151 49.2809H42.2748C42.2699 49.2809 42.2652 49.2797 42.2608 49.2774C42.2565 49.2751 42.2528 49.2718 42.2499 49.2677C39.6107 45.4353 36.9705 41.6006 34.3292 37.7639C34.3259 37.7592 34.3215 37.7562 34.3161 37.755ZM43.2663 47.3529C43.2674 47.3545 43.2689 47.3559 43.2707 47.3568C43.2724 47.3577 43.2743 47.3582 43.2763 47.3583H47.0628C47.0651 47.3583 47.0673 47.3577 47.0693 47.3565C47.0712 47.3553 47.0728 47.3536 47.0739 47.3516C47.0749 47.3496 47.0754 47.3473 47.0753 47.3451C47.0752 47.3428 47.0744 47.3406 47.0731 47.3387L29.4542 21.7524C29.4531 21.7508 29.4516 21.7494 29.4498 21.7485C29.4481 21.7476 29.4462 21.7471 29.4442 21.7471H25.6577C25.6554 21.747 25.6532 21.7476 25.6512 21.7488C25.6493 21.75 25.6477 21.7517 25.6466 21.7537C25.6456 21.7557 25.6451 21.758 25.6452 21.7602C25.6453 21.7625 25.6461 21.7647 25.6474 21.7666L43.2663 47.3529Z" fill="#2A2B51"/>
</svg>
