<svg width="72" height="72" viewBox="0 0 72 72" fill="none" xmlns="http://www.w3.org/2000/svg">
<path d="M71 36C71 26.7174 67.3125 17.815 60.7487 11.2513C54.185 4.68749 45.2826 1 36 1C26.7174 1 17.815 4.68749 11.2513 11.2513C4.68749 17.815 1 26.7174 1 36C1 45.2826 4.68749 54.185 11.2513 60.7487C17.815 67.3125 26.7174 71 36 71C45.2826 71 54.185 67.3125 60.7487 60.7487C67.3125 54.185 71 45.2826 71 36Z" stroke="#FFD600" stroke-width="2"/>
<path d="M69.9341 35.9859C69.9341 26.9859 66.3589 18.3546 59.995 11.9907C53.6311 5.62673 44.9997 2.05151 35.9998 2.05151C26.9998 2.05151 18.3685 5.62673 12.0046 11.9907C5.64064 18.3546 2.06543 26.9859 2.06543 35.9859C2.06543 44.9858 5.64064 53.6171 12.0046 59.9811C18.3685 66.345 26.9998 69.9202 35.9998 69.9202C44.9997 69.9202 53.6311 66.345 59.995 59.9811C66.3589 53.6171 69.9341 44.9858 69.9341 35.9859Z" stroke="#FFD600" stroke-width="2"/>
<path d="M63.0495 35.993C63.0495 28.8189 60.1996 21.9386 55.1267 16.8657C50.0538 11.7928 43.1735 8.94287 35.9994 8.94287C28.8252 8.94287 21.9449 11.7928 16.872 16.8657C11.7991 21.9386 8.94922 28.8189 8.94922 35.993C8.94922 43.1672 11.7991 50.0475 16.872 55.1203C21.9449 60.1932 28.8252 63.0432 35.9994 63.0432C43.1735 63.0432 50.0538 60.1932 55.1267 55.1203C60.1996 50.0475 63.0495 43.1672 63.0495 35.993Z" stroke="#FFD600" stroke-width="2"/>
<path d="M7.36184 35.9962C7.36184 35.5421 7.18146 35.1066 6.86036 34.7855C6.53927 34.4644 6.10377 34.2841 5.64967 34.2841C5.19558 34.2841 4.76008 34.4644 4.43898 34.7855C4.11789 35.1066 3.9375 35.5421 3.9375 35.9962C3.9375 36.4503 4.11789 36.8858 4.43898 37.2069C4.76008 37.528 5.19558 37.7084 5.64967 37.7084C6.10377 37.7084 6.53927 37.528 6.86036 37.2069C7.18146 36.8858 7.36184 36.4503 7.36184 35.9962Z" stroke="#FFD600" stroke-width="2"/>
<path d="M68.0655 35.9964C68.0655 35.7706 68.021 35.547 67.9346 35.3384C67.8482 35.1298 67.7216 34.9403 67.562 34.7807C67.4023 34.621 67.2128 34.4944 67.0042 34.408C66.7956 34.3216 66.572 34.2771 66.3462 34.2771C65.8903 34.2771 65.4529 34.4582 65.1305 34.7807C64.8081 35.1031 64.627 35.5404 64.627 35.9964C64.627 36.4524 64.8081 36.8897 65.1305 37.2121C65.4529 37.5345 65.8903 37.7156 66.3462 37.7156C66.572 37.7156 66.7956 37.6712 67.0042 37.5848C67.2128 37.4984 67.4023 37.3717 67.562 37.2121C67.7216 37.0524 67.8482 36.8629 67.9346 36.6543C68.021 36.4457 68.0655 36.2222 68.0655 35.9964Z" stroke="#FFD600" stroke-width="2"/>
<path d="M31.9604 36.1882L31.9569 50.8482C31.9569 50.9198 31.9857 50.9884 32.037 51.0391C32.0883 51.0897 32.1579 51.1181 32.2304 51.1181L37.8997 51.1075C37.9459 51.1075 37.9902 51.0891 38.0228 51.0565C38.0555 51.0239 38.0738 50.9796 38.0738 50.9334L38.0809 36.1811C38.0809 36.156 38.0858 36.1313 38.0953 36.1082C38.1048 36.0851 38.1187 36.0642 38.1363 36.0467C38.1538 36.0291 38.1746 36.0153 38.1974 36.0061C38.2202 35.9968 38.2446 35.9923 38.2692 35.9928L42.2903 36.0212C42.4395 36.0236 42.5212 35.9502 42.5354 35.801L43.0505 30.153C43.0599 30.0322 43.0043 29.9718 42.8835 29.9718H38.4539C38.3497 29.9718 38.2952 29.9209 38.2905 29.819C38.2088 28.288 37.8038 26.0857 39.7753 26.1638C40.2324 26.1828 41.2554 26.1768 42.8444 26.1461C42.9676 26.1437 43.0291 26.0809 43.0291 25.9578L43.0327 21.109C43.0327 20.9882 42.9711 20.9267 42.848 20.9243C38.1662 20.8746 33.3245 20.1073 32.0492 25.7091C31.8953 26.384 31.8562 27.7232 31.932 29.7267C31.933 29.7585 31.9275 29.7902 31.916 29.8199C31.9044 29.8496 31.8871 29.8767 31.8649 29.8996C31.8427 29.9224 31.8161 29.9406 31.7868 29.953C31.7574 29.9654 31.7259 29.9718 31.694 29.9718H29.1151C28.9967 29.9718 28.9375 30.031 28.9375 30.1494L28.9411 35.8365C28.9411 35.8601 28.9457 35.8835 28.9546 35.9053C28.9636 35.9271 28.9768 35.9468 28.9933 35.9634C29.0098 35.9799 29.0295 35.9929 29.051 36.0016C29.0725 36.0103 29.0955 36.0146 29.1187 36.0141L31.7793 36.0035C31.9 36.0035 31.9604 36.065 31.9604 36.1882Z" stroke="#FFD600" stroke-width="2"/>
<path d="M69.9341 35.9859C69.9341 44.9858 66.3589 53.6171 59.995 59.9811C53.6311 66.345 44.9997 69.9202 35.9998 69.9202C26.9998 69.9202 18.3685 66.345 12.0046 59.9811C5.64064 53.6171 2.06543 44.9858 2.06543 35.9859C2.06543 26.9859 5.64064 18.3546 12.0046 11.9907C18.3685 5.62673 26.9998 2.05151 35.9998 2.05151C44.9997 2.05151 53.6311 5.62673 59.995 11.9907C66.3589 18.3546 69.9341 26.9859 69.9341 35.9859ZM63.0499 35.993C63.0499 28.8188 60.2 21.9385 55.1271 16.8656C50.0542 11.7927 43.1739 8.94282 35.9998 8.94282C28.8256 8.94282 21.9453 11.7927 16.8724 16.8656C11.7995 21.9385 8.94963 28.8188 8.94963 35.993C8.94963 43.1671 11.7995 50.0474 16.8724 55.1203C21.9453 60.1932 28.8256 63.0431 35.9998 63.0431C43.1739 63.0431 50.0542 60.1932 55.1271 55.1203C60.2 50.0474 63.0499 43.1671 63.0499 35.993ZM7.36179 35.9965C7.36179 35.5424 7.1814 35.1069 6.86031 34.7858C6.53921 34.4647 6.10371 34.2843 5.64962 34.2843C5.19552 34.2843 4.76002 34.4647 4.43893 34.7858C4.11783 35.1069 3.93744 35.5424 3.93744 35.9965C3.93744 36.4506 4.11783 36.8861 4.43893 37.2072C4.76002 37.5283 5.19552 37.7087 5.64962 37.7087C6.10371 37.7087 6.53921 37.5283 6.86031 37.2072C7.1814 36.8861 7.36179 36.4506 7.36179 35.9965ZM68.0656 35.9965C68.0656 35.7707 68.0212 35.5472 67.9348 35.3386C67.8484 35.13 67.7217 34.9404 67.5621 34.7808C67.4024 34.6212 67.2129 34.4945 67.0043 34.4081C66.7957 34.3217 66.5721 34.2772 66.3464 34.2772C65.8904 34.2772 65.4531 34.4584 65.1306 34.7808C64.8082 35.1032 64.6271 35.5405 64.6271 35.9965C64.6271 36.4525 64.8082 36.8898 65.1306 37.2122C65.4531 37.5346 65.8904 37.7158 66.3464 37.7158C66.5721 37.7158 66.7957 37.6713 67.0043 37.5849C67.2129 37.4985 67.4024 37.3719 67.5621 37.2122C67.7217 37.0526 67.8484 36.863 67.9348 36.6545C68.0212 36.4459 68.0656 36.2223 68.0656 35.9965Z" fill="#49157F"/>
<path d="M31.7793 36.0035L29.1187 36.0141C29.0955 36.0146 29.0725 36.0103 29.051 36.0016C29.0295 35.9929 29.0098 35.9799 28.9933 35.9634C28.9768 35.9468 28.9636 35.9271 28.9546 35.9053C28.9457 35.8835 28.9411 35.8601 28.9411 35.8365L28.9375 30.1494C28.9375 30.031 28.9967 29.9718 29.1151 29.9718H31.694C31.7259 29.9718 31.7574 29.9654 31.7868 29.953C31.8161 29.9406 31.8427 29.9224 31.8649 29.8996C31.8871 29.8767 31.9044 29.8496 31.916 29.8199C31.9275 29.7902 31.933 29.7585 31.932 29.7267C31.8562 27.7232 31.8953 26.384 32.0492 25.7091C33.3245 20.1073 38.1662 20.8746 42.848 20.9243C42.9711 20.9267 43.0327 20.9882 43.0327 21.109L43.0291 25.9578C43.0291 26.0809 42.9676 26.1437 42.8444 26.1461C41.2554 26.1768 40.2324 26.1828 39.7753 26.1638C37.8038 26.0857 38.2088 28.288 38.2905 29.819C38.2952 29.9209 38.3497 29.9718 38.4539 29.9718H42.8835C43.0043 29.9718 43.0599 30.0322 43.0505 30.153L42.5354 35.801C42.5212 35.9502 42.4395 36.0236 42.2903 36.0212L38.2692 35.9928C38.2446 35.9923 38.2202 35.9968 38.1974 36.0061C38.1746 36.0153 38.1538 36.0291 38.1363 36.0467C38.1187 36.0642 38.1048 36.0851 38.0953 36.1082C38.0858 36.1313 38.0809 36.156 38.0809 36.1811L38.0738 50.9334C38.0738 50.9796 38.0555 51.0239 38.0228 51.0565C37.9902 51.0891 37.9459 51.1075 37.8997 51.1075L32.2304 51.1181C32.1579 51.1181 32.0883 51.0897 32.037 51.0391C31.9857 50.9884 31.9569 50.9198 31.9569 50.8482L31.9604 36.1882C31.9604 36.065 31.9 36.0035 31.7793 36.0035Z" fill="#49157F"/>
</svg>
