<svg width="72" height="72" viewBox="0 0 72 72" fill="none" xmlns="http://www.w3.org/2000/svg">
<path d="M71 36C71 31.4037 70.0947 26.8525 68.3358 22.6061C66.5768 18.3597 63.9988 14.5013 60.7487 11.2513C57.4987 8.00121 53.6403 5.42313 49.3939 3.66422C45.1475 1.9053 40.5962 1 36 1C26.7174 1 17.815 4.68749 11.2513 11.2513C4.68749 17.815 1 26.7174 1 36C1 45.2826 4.68749 54.185 11.2513 60.7487C17.815 67.3125 26.7174 71 36 71C40.5962 71 45.1475 70.0947 49.3939 68.3358C53.6403 66.5769 57.4987 63.9988 60.7487 60.7487C63.9988 57.4987 66.5768 53.6403 68.3358 49.3939C70.0947 45.1475 71 40.5963 71 36Z" stroke="#FFD600" stroke-width="2"/>
<path d="M69.9338 35.9786C69.9338 26.9796 66.359 18.3492 59.9957 11.986C53.6325 5.6227 45.0021 2.04785 36.0031 2.04785C31.5472 2.04785 27.135 2.9255 23.0183 4.63068C18.9016 6.33586 15.1611 8.83519 12.0104 11.986C8.8596 15.1367 6.36028 18.8772 4.6551 22.9939C2.94992 27.1106 2.07227 31.5228 2.07227 35.9786C2.07227 40.4345 2.94992 44.8467 4.6551 48.9634C6.36028 53.0801 8.8596 56.8206 12.0104 59.9713C15.1611 63.1221 18.9016 65.6214 23.0183 67.3266C27.135 69.0318 31.5472 69.9094 36.0031 69.9094C45.0021 69.9094 53.6325 66.3346 59.9957 59.9713C66.359 53.6081 69.9338 44.9776 69.9338 35.9786Z" stroke="#FFD600" stroke-width="2"/>
<path d="M63.0566 35.9892C63.0566 28.8142 60.2063 21.9329 55.1327 16.8594C50.0592 11.7858 43.178 8.93555 36.0029 8.93555C28.8278 8.93555 21.9466 11.7858 16.873 16.8594C11.7995 21.9329 8.94922 28.8142 8.94922 35.9892C8.94922 39.542 9.64897 43.0599 11.0085 46.3422C12.3681 49.6245 14.3609 52.6069 16.873 55.1191C21.9466 60.1926 28.8278 63.0429 36.0029 63.0429C39.5556 63.0429 43.0736 62.3432 46.3559 60.9836C49.6382 59.624 52.6206 57.6313 55.1327 55.1191C57.6449 52.6069 59.6377 49.6245 60.9972 46.3422C62.3568 43.0599 63.0566 39.542 63.0566 35.9892Z" stroke="#FFD600" stroke-width="2"/>
<path d="M68.0765 35.9859C68.0765 35.7596 68.0319 35.5356 67.9454 35.3266C67.8588 35.1176 67.7319 34.9276 67.5719 34.7677C67.4119 34.6077 67.222 34.4808 67.013 34.3942C66.804 34.3076 66.5799 34.2631 66.3537 34.2631C66.1274 34.2631 65.9034 34.3076 65.6944 34.3942C65.4854 34.4808 65.2954 34.6077 65.1355 34.7677C64.9755 34.9276 64.8486 35.1176 64.762 35.3266C64.6754 35.5356 64.6309 35.7596 64.6309 35.9859C64.6309 36.2121 64.6754 36.4362 64.762 36.6452C64.8486 36.8542 64.9755 37.0441 65.1355 37.2041C65.2954 37.3641 65.4854 37.491 65.6944 37.5776C65.9034 37.6641 66.1274 37.7087 66.3537 37.7087C66.5799 37.7087 66.804 37.6641 67.013 37.5776C67.222 37.491 67.4119 37.3641 67.5719 37.2041C67.7319 37.0441 67.8588 36.8542 67.9454 36.6452C68.0319 36.4362 68.0765 36.2121 68.0765 35.9859Z" stroke="#FFD600" stroke-width="2"/>
<path d="M7.36575 35.9857C7.36575 35.7609 7.32147 35.5382 7.23542 35.3305C7.14938 35.1228 7.02326 34.934 6.86427 34.775C6.70528 34.6161 6.51653 34.4899 6.3088 34.4039C6.10107 34.3179 5.87842 34.2736 5.65358 34.2736C5.19948 34.2736 4.76398 34.4539 4.44289 34.775C4.12179 35.0961 3.94141 35.5316 3.94141 35.9857C3.94141 36.4398 4.12179 36.8753 4.44289 37.1964C4.76398 37.5175 5.19948 37.6979 5.65358 37.6979C5.87842 37.6979 6.10107 37.6536 6.3088 37.5676C6.51653 37.4815 6.70528 37.3554 6.86427 37.1964C7.02326 37.0374 7.14938 36.8487 7.23542 36.641C7.32147 36.4332 7.36575 36.2106 7.36575 35.9857Z" stroke="#FFD600" stroke-width="2"/>
<path d="M49.7054 27.9729C49.7028 26.4863 49.1098 25.0616 48.0567 24.0122C47.0037 22.9628 45.5769 22.3747 44.0903 22.3773L27.8495 22.4057C26.3629 22.4083 24.9382 23.0013 23.8888 24.0544C22.8394 25.1074 22.2513 26.5342 22.2539 28.0208L22.2818 43.9987C22.2844 45.4853 22.8775 46.91 23.9305 47.9594C24.9836 49.0088 26.4103 49.5969 27.897 49.5943L44.1377 49.5659C45.6243 49.5633 47.0491 48.9703 48.0984 47.9172C49.1478 46.8642 49.7359 45.4374 49.7333 43.9508L49.7054 27.9729Z" stroke="#FFD600" stroke-width="2"/>
<path d="M47.6121 28.0182C47.6121 27.0799 47.2393 26.18 46.5758 25.5165C45.9123 24.853 45.0124 24.4802 44.0741 24.4802H27.9257C26.9874 24.4802 26.0875 24.853 25.424 25.5165C24.7605 26.18 24.3877 27.0799 24.3877 28.0182V43.989C24.3877 44.9273 24.7605 45.8273 25.424 46.4908C26.0875 47.1543 26.9874 47.527 27.9257 47.527H44.0741C45.0124 47.527 45.9123 47.1543 46.5758 46.4908C47.2393 45.8273 47.6121 44.9273 47.6121 43.989V28.0182Z" stroke="#FFD600" stroke-width="2"/>
<path d="M44.1983 35.9893C44.1983 33.8168 43.3352 31.7332 41.799 30.1971C40.2628 28.6609 38.1793 27.7979 36.0068 27.7979C33.8343 27.7979 31.7508 28.6609 30.2146 30.1971C28.6784 31.7332 27.8154 33.8168 27.8154 35.9893C27.8154 38.1618 28.6784 40.2453 30.2146 41.7815C31.7508 43.3177 33.8343 44.1807 36.0068 44.1807C38.1793 44.1807 40.2628 43.3177 41.799 41.7815C43.3352 40.2453 44.1983 38.1618 44.1983 35.9893Z" stroke="#FFD600" stroke-width="2"/>
<path d="M42.1417 35.9893C42.1417 34.3613 41.495 32.8001 40.3439 31.6489C39.1927 30.4978 37.6314 29.8511 36.0035 29.8511C34.3755 29.8511 32.8142 30.4978 31.6631 31.6489C30.5119 32.8001 29.8652 34.3613 29.8652 35.9893C29.8652 37.6173 30.5119 39.1785 31.6631 40.3297C32.8142 41.4808 34.3755 42.1275 36.0035 42.1275C37.6314 42.1275 39.1927 41.4808 40.3439 40.3297C41.495 39.1785 42.1417 37.6173 42.1417 35.9893Z" stroke="#FFD600" stroke-width="2"/>
<path d="M69.9338 35.9788C69.9338 44.9778 66.359 53.6082 59.9957 59.9714C53.6325 66.3347 45.0021 69.9095 36.0031 69.9095C31.5472 69.9095 27.135 69.0319 23.0183 67.3267C18.9016 65.6215 15.1611 63.1222 12.0104 59.9714C8.8596 56.8207 6.36028 53.0802 4.6551 48.9635C2.94992 44.8468 2.07227 40.4346 2.07227 35.9788C2.07227 31.5229 2.94992 27.1107 4.6551 22.994C6.36028 18.8773 8.8596 15.1368 12.0104 11.9861C15.1611 8.83531 18.9016 6.33598 23.0183 4.6308C27.135 2.92562 31.5472 2.04797 36.0031 2.04797C45.0021 2.04797 53.6325 5.62282 59.9957 11.9861C66.359 18.3493 69.9338 26.9798 69.9338 35.9788ZM63.0567 35.9894C63.0567 28.8143 60.2065 21.9331 55.1329 16.8596C50.0594 11.786 43.1781 8.93572 36.0031 8.93572C28.828 8.93572 21.9468 11.786 16.8732 16.8596C11.7997 21.9331 8.94938 28.8143 8.94938 35.9894C8.94938 39.5422 9.64913 43.0601 11.0087 46.3424C12.3683 49.6247 14.361 52.6071 16.8732 55.1193C21.9468 60.1928 28.828 63.0431 36.0031 63.0431C39.5558 63.0431 43.0737 62.3433 46.356 60.9838C49.6384 59.6242 52.6207 57.6314 55.1329 55.1193C57.6451 52.6071 59.6378 49.6247 60.9974 46.3424C62.357 43.0601 63.0567 39.5422 63.0567 35.9894ZM68.076 35.9859C68.076 35.7596 68.0315 35.5356 67.9449 35.3266C67.8583 35.1175 67.7314 34.9276 67.5714 34.7676C67.4114 34.6077 67.2215 34.4808 67.0125 34.3942C66.8035 34.3076 66.5795 34.263 66.3532 34.263C66.127 34.263 65.9029 34.3076 65.6939 34.3942C65.4849 34.4808 65.295 34.6077 65.135 34.7676C64.975 34.9276 64.8481 35.1175 64.7615 35.3266C64.6749 35.5356 64.6304 35.7596 64.6304 35.9859C64.6304 36.2121 64.6749 36.4361 64.7615 36.6452C64.8481 36.8542 64.975 37.0441 65.135 37.2041C65.295 37.3641 65.4849 37.491 65.6939 37.5775C65.9029 37.6641 66.127 37.7087 66.3532 37.7087C66.5795 37.7087 66.8035 37.6641 67.0125 37.5775C67.2215 37.491 67.4114 37.3641 67.5714 37.2041C67.7314 37.0441 67.8583 36.8542 67.9449 36.6452C68.0315 36.4361 68.076 36.2121 68.076 35.9859ZM7.36508 35.9859C7.36508 35.761 7.3208 35.5384 7.23475 35.3306C7.14871 35.1229 7.02259 34.9342 6.8636 34.7752C6.70461 34.6162 6.51586 34.4901 6.30813 34.404C6.1004 34.318 5.87775 34.2737 5.65291 34.2737C5.19881 34.2737 4.76331 34.4541 4.44222 34.7752C4.12112 35.0963 3.94074 35.5318 3.94074 35.9859C3.94074 36.44 4.12112 36.8755 4.44222 37.1966C4.76331 37.5176 5.19881 37.698 5.65291 37.698C5.87775 37.698 6.1004 37.6537 6.30813 37.5677C6.51586 37.4817 6.70461 37.3555 6.8636 37.1966C7.02259 37.0376 7.14871 36.8488 7.23475 36.6411C7.3208 36.4334 7.36508 36.2107 7.36508 35.9859Z" fill="#49157F"/>
<path d="M49.7323 43.9508C49.7349 45.4374 49.1468 46.8642 48.0975 47.9172C47.0481 48.9703 45.6234 49.5633 44.1367 49.5659L27.896 49.5943C26.4094 49.5969 24.9826 49.0088 23.9295 47.9594C22.8765 46.91 22.2834 45.4853 22.2808 43.9987L22.2529 28.0208C22.2503 26.5342 22.8384 25.1074 23.8878 24.0544C24.9372 23.0013 26.3619 22.4083 27.8485 22.4057L44.0893 22.3773C45.5759 22.3747 47.0027 22.9628 48.0557 24.0122C49.1088 25.0616 49.7018 26.4863 49.7044 27.9729L49.7323 43.9508ZM47.6119 28.0182C47.6119 27.0798 47.2392 26.1799 46.5757 25.5164C45.9122 24.8529 45.0123 24.4802 44.0739 24.4802H27.9256C26.9872 24.4802 26.0873 24.8529 25.4238 25.5164C24.7603 26.1799 24.3875 27.0798 24.3875 28.0182V43.989C24.3875 44.9273 24.7603 45.8272 25.4238 46.4907C26.0873 47.1542 26.9872 47.527 27.9256 47.527H44.0739C45.0123 47.527 45.9122 47.1542 46.5757 46.4907C47.2392 45.8272 47.6119 44.9273 47.6119 43.989V28.0182Z" fill="#49157F"/>
<path d="M44.1983 35.9893C44.1983 38.1618 43.3352 40.2453 41.799 41.7815C40.2628 43.3177 38.1793 44.1807 36.0068 44.1807C33.8343 44.1807 31.7508 43.3177 30.2146 41.7815C28.6784 40.2453 27.8154 38.1618 27.8154 35.9893C27.8154 33.8168 28.6784 31.7332 30.2146 30.1971C31.7508 28.6609 33.8343 27.7979 36.0068 27.7979C38.1793 27.7979 40.2628 28.6609 41.799 30.1971C43.3352 31.7332 44.1983 33.8168 44.1983 35.9893ZM42.1415 35.9893C42.1415 34.3613 41.4948 32.8 40.3437 31.6489C39.1925 30.4977 37.6312 29.851 36.0033 29.851C34.3753 29.851 32.814 30.4977 31.6629 31.6489C30.5118 32.8 29.865 34.3613 29.865 35.9893C29.865 37.6172 30.5118 39.1785 31.6629 40.3296C32.814 41.4808 34.3753 42.1275 36.0033 42.1275C37.6312 42.1275 39.1925 41.4808 40.3437 40.3296C41.4948 39.1785 42.1415 37.6172 42.1415 35.9893Z" fill="#49157F"/>
</svg>
