<svg width="72" height="72" viewBox="0 0 72 72" fill="none" xmlns="http://www.w3.org/2000/svg">
<path d="M71 36C71 26.7174 67.3125 17.815 60.7487 11.2513C54.185 4.68749 45.2826 1 36 1C26.7174 1 17.815 4.68749 11.2513 11.2513C4.68749 17.815 1 26.7174 1 36C1 45.2826 4.68749 54.185 11.2513 60.7487C17.815 67.3125 26.7174 71 36 71C45.2826 71 54.185 67.3125 60.7487 60.7487C67.3125 54.185 71 45.2826 71 36Z" stroke="#FFD600" stroke-width="2"/>
<path d="M69.9341 35.9858C69.9341 26.9859 66.3589 18.3546 59.995 11.9906C53.631 5.62672 44.9997 2.05151 35.9998 2.05151C26.9998 2.05151 18.3685 5.62672 12.0046 11.9906C5.64064 18.3546 2.06543 26.9859 2.06543 35.9858C2.06543 44.9858 5.64064 53.6171 12.0046 59.9811C18.3685 66.345 26.9998 69.9202 35.9998 69.9202C44.9997 69.9202 53.631 66.345 59.995 59.9811C66.3589 53.6171 69.9341 44.9858 69.9341 35.9858Z" stroke="#FFD600" stroke-width="2"/>
<path d="M63.0495 35.9929C63.0495 28.8188 60.1996 21.9384 55.1267 16.8656C50.0538 11.7927 43.1735 8.94275 35.9994 8.94275C28.8252 8.94275 21.9449 11.7927 16.872 16.8656C11.7991 21.9384 8.94922 28.8188 8.94922 35.9929C8.94922 43.167 11.7991 50.0473 16.872 55.1202C21.9449 60.1931 28.8252 63.043 35.9994 63.043C43.1735 63.043 50.0538 60.1931 55.1267 55.1202C60.1996 50.0473 63.0495 43.167 63.0495 35.9929Z" stroke="#FFD600" stroke-width="2"/>
<path d="M68.0694 35.993C68.0694 35.537 67.8883 35.0997 67.5658 34.7772C67.2434 34.4548 66.8061 34.2737 66.3501 34.2737C65.8942 34.2737 65.4568 34.4548 65.1344 34.7772C64.812 35.0997 64.6309 35.537 64.6309 35.993C64.6309 36.4489 64.812 36.8862 65.1344 37.2087C65.4568 37.5311 65.8942 37.7122 66.3501 37.7122C66.8061 37.7122 67.2434 37.5311 67.5658 37.2087C67.8883 36.8862 68.0694 36.4489 68.0694 35.993Z" stroke="#FFD600" stroke-width="2"/>
<path d="M7.36574 35.9963C7.36574 35.5422 7.18535 35.1068 6.86426 34.7857C6.54316 34.4646 6.10767 34.2842 5.65358 34.2842C5.19948 34.2842 4.76398 34.4646 4.44289 34.7857C4.12179 35.1068 3.94141 35.5422 3.94141 35.9963C3.94141 36.4504 4.12179 36.8859 4.44289 37.207C4.76398 37.5281 5.19948 37.7085 5.65358 37.7085C6.10767 37.7085 6.54316 37.5281 6.86426 37.207C7.18535 36.8859 7.36574 36.4504 7.36574 35.9963Z" stroke="#FFD600" stroke-width="2"/>
<path d="M33.4317 26.3486C33.1051 26.104 32.7169 25.9552 32.3104 25.9187C31.904 25.8822 31.4955 25.9596 31.1305 26.1421C30.7656 26.3245 30.4586 26.605 30.2439 26.952C30.0292 27.299 29.9154 27.6989 29.915 28.107V45.932C29.9154 46.34 30.0292 46.7399 30.2439 47.087C30.4586 47.434 30.7656 47.7144 31.1305 47.8969C31.4955 48.0794 31.904 48.1567 32.3104 48.1202C32.7169 48.0838 33.1051 47.9349 33.4317 47.6903L45.3139 38.7778C45.5867 38.573 45.8081 38.3075 45.9606 38.0023C46.1131 37.6971 46.1925 37.3606 46.1925 37.0195C46.1925 36.6783 46.1131 36.3418 45.9606 36.0367C45.8081 35.7315 45.5867 35.466 45.3139 35.2611L33.4317 26.3486Z" stroke="#FFD600" stroke-width="2"/>
<path d="M69.9341 35.9858C69.9341 44.9858 66.3589 53.6171 59.995 59.9811C53.631 66.345 44.9997 69.9202 35.9998 69.9202C26.9998 69.9202 18.3685 66.345 12.0046 59.9811C5.64064 53.6171 2.06543 44.9858 2.06543 35.9858C2.06543 26.9859 5.64064 18.3546 12.0046 11.9906C18.3685 5.62672 26.9998 2.05151 35.9998 2.05151C44.9997 2.05151 53.631 5.62672 59.995 11.9906C66.3589 18.3546 69.9341 26.9859 69.9341 35.9858ZM63.0499 35.993C63.0499 28.8188 60.2 21.9385 55.1271 16.8656C50.0542 11.7927 43.1739 8.94281 35.9998 8.94281C28.8256 8.94281 21.9453 11.7927 16.8724 16.8656C11.7995 21.9385 8.94963 28.8188 8.94963 35.993C8.94963 43.1671 11.7995 50.0474 16.8724 55.1203C21.9453 60.1932 28.8256 63.0431 35.9998 63.0431C43.1739 63.0431 50.0542 60.1932 55.1271 55.1203C60.2 50.0474 63.0499 43.1671 63.0499 35.993ZM68.0692 35.993C68.0692 35.537 67.888 35.0997 67.5656 34.7772C67.2432 34.4548 66.8059 34.2737 66.3499 34.2737C65.8939 34.2737 65.4566 34.4548 65.1342 34.7772C64.8118 35.0997 64.6306 35.537 64.6306 35.993C64.6306 36.4489 64.8118 36.8862 65.1342 37.2087C65.4566 37.5311 65.8939 37.7122 66.3499 37.7122C66.8059 37.7122 67.2432 37.5311 67.5656 37.2087C67.888 36.8862 68.0692 36.4489 68.0692 35.993ZM7.36533 35.9965C7.36533 35.5424 7.18494 35.1069 6.86385 34.7858C6.54276 34.4647 6.10727 34.2843 5.65317 34.2843C5.19908 34.2843 4.76358 34.4647 4.44248 34.7858C4.12139 35.1069 3.941 35.5424 3.941 35.9965C3.941 36.4506 4.12139 36.8861 4.44248 37.2072C4.76358 37.5283 5.19908 37.7087 5.65317 37.7087C6.10727 37.7087 6.54276 37.5283 6.86385 37.2072C7.18494 36.8861 7.36533 36.4506 7.36533 35.9965Z" fill="#49157F"/>
<path d="M33.4317 26.3486L45.3139 35.2611C45.5867 35.466 45.8081 35.7315 45.9606 36.0367C46.1131 36.3418 46.1925 36.6783 46.1925 37.0195C46.1925 37.3606 46.1131 37.6971 45.9606 38.0023C45.8081 38.3075 45.5867 38.573 45.3139 38.7778L33.4317 47.6903C33.1051 47.9349 32.7169 48.0838 32.3104 48.1202C31.904 48.1567 31.4955 48.0794 31.1305 47.8969C30.7656 47.7144 30.4586 47.434 30.2439 47.087C30.0292 46.7399 29.9154 46.34 29.915 45.932V28.107C29.9154 27.6989 30.0292 27.299 30.2439 26.952C30.4586 26.605 30.7656 26.3245 31.1305 26.1421C31.4955 25.9596 31.904 25.8822 32.3104 25.9187C32.7169 25.9552 33.1051 26.104 33.4317 26.3486Z" fill="#49157F"/>
</svg>
