<svg width="72" height="72" viewBox="0 0 72 72" fill="none" xmlns="http://www.w3.org/2000/svg">
<path d="M71 36C71 26.7174 67.3125 17.815 60.7487 11.2513C54.185 4.68749 45.2826 1 36 1C26.7174 1 17.815 4.68749 11.2513 11.2513C4.68749 17.815 1 26.7174 1 36C1 45.2826 4.68749 54.185 11.2513 60.7487C17.815 67.3125 26.7174 71 36 71C45.2826 71 54.185 67.3125 60.7487 60.7487C67.3125 54.185 71 45.2826 71 36Z" stroke="#FFD600" stroke-width="2"/>
<path d="M69.9341 35.9857C69.9341 26.9858 66.3589 18.3544 59.995 11.9905C53.631 5.6266 44.9997 2.05139 35.9998 2.05139C26.9998 2.05139 18.3685 5.6266 12.0046 11.9905C5.64064 18.3544 2.06543 26.9858 2.06543 35.9857C2.06543 44.9857 5.64064 53.617 12.0046 59.9809C18.3685 66.3449 26.9998 69.9201 35.9998 69.9201C44.9997 69.9201 53.631 66.3449 59.995 59.9809C66.3589 53.617 69.9341 44.9857 69.9341 35.9857Z" stroke="#FFD600" stroke-width="2"/>
<path d="M63.0495 35.9929C63.0495 28.8188 60.1996 21.9384 55.1267 16.8656C50.0538 11.7927 43.1735 8.94275 35.9994 8.94275C28.8252 8.94275 21.9449 11.7927 16.872 16.8656C11.7991 21.9384 8.94922 28.8188 8.94922 35.9929C8.94922 43.167 11.7991 50.0473 16.872 55.1202C21.9449 60.1931 28.8252 63.043 35.9994 63.043C43.1735 63.043 50.0538 60.1931 55.1267 55.1202C60.1996 50.0473 63.0495 43.167 63.0495 35.9929Z" stroke="#FFD600" stroke-width="2"/>
<path d="M68.0694 35.9928C68.0694 35.5369 67.8883 35.0995 67.5658 34.7771C67.2434 34.4547 66.8061 34.2736 66.3501 34.2736C65.8942 34.2736 65.4568 34.4547 65.1344 34.7771C64.812 35.0995 64.6309 35.5369 64.6309 35.9928C64.6309 36.4488 64.812 36.8861 65.1344 37.2085C65.4568 37.531 65.8942 37.7121 66.3501 37.7121C66.8061 37.7121 67.2434 37.531 67.5658 37.2085C67.8883 36.8861 68.0694 36.4488 68.0694 35.9928Z" stroke="#FFD600" stroke-width="2"/>
<path d="M7.36574 35.9965C7.36574 35.5424 7.18535 35.1069 6.86426 34.7858C6.54316 34.4647 6.10767 34.2843 5.65358 34.2843C5.19948 34.2843 4.76398 34.4647 4.44289 34.7858C4.12179 35.1069 3.94141 35.5424 3.94141 35.9965C3.94141 36.4505 4.12179 36.886 4.44289 37.2071C4.76398 37.5282 5.19948 37.7086 5.65358 37.7086C6.10767 37.7086 6.54316 37.5282 6.86426 37.2071C7.18535 36.886 7.36574 36.4505 7.36574 35.9965Z" stroke="#FFD600" stroke-width="2"/>
<path d="M69.9341 35.9857C69.9341 44.9857 66.3589 53.617 59.995 59.9809C53.631 66.3449 44.9997 69.9201 35.9998 69.9201C26.9998 69.9201 18.3685 66.3449 12.0046 59.9809C5.64064 53.617 2.06543 44.9857 2.06543 35.9857C2.06543 26.9858 5.64064 18.3544 12.0046 11.9905C18.3685 5.6266 26.9998 2.05139 35.9998 2.05139C44.9997 2.05139 53.631 5.6266 59.995 11.9905C66.3589 18.3544 69.9341 26.9858 69.9341 35.9857ZM63.0499 35.9928C63.0499 28.8187 60.2 21.9384 55.1271 16.8655C50.0542 11.7926 43.1739 8.94269 35.9998 8.94269C28.8256 8.94269 21.9453 11.7926 16.8724 16.8655C11.7995 21.9384 8.94963 28.8187 8.94963 35.9928C8.94963 43.167 11.7995 50.0473 16.8724 55.1202C21.9453 60.193 28.8256 63.043 35.9998 63.043C43.1739 63.043 50.0542 60.193 55.1271 55.1202C60.2 50.0473 63.0499 43.167 63.0499 35.9928ZM68.0692 35.9928C68.0692 35.5369 67.888 35.0995 67.5656 34.7771C67.2432 34.4547 66.8059 34.2736 66.3499 34.2736C65.8939 34.2736 65.4566 34.4547 65.1342 34.7771C64.8118 35.0995 64.6306 35.5369 64.6306 35.9928C64.6306 36.4488 64.8118 36.8861 65.1342 37.2085C65.4566 37.531 65.8939 37.7121 66.3499 37.7121C66.8059 37.7121 67.2432 37.531 67.5656 37.2085C67.888 36.8861 68.0692 36.4488 68.0692 35.9928ZM7.36533 35.9964C7.36533 35.5423 7.18494 35.1068 6.86385 34.7857C6.54276 34.4646 6.10727 34.2842 5.65317 34.2842C5.19908 34.2842 4.76358 34.4646 4.44248 34.7857C4.12139 35.1068 3.941 35.5423 3.941 35.9964C3.941 36.4505 4.12139 36.886 4.44248 37.2071C4.76358 37.5282 5.19908 37.7085 5.65317 37.7085C6.10727 37.7085 6.54276 37.5282 6.86385 37.2071C7.18494 36.886 7.36533 36.4505 7.36533 35.9964Z" fill="#49157F"/>
<path d="M26.7482 21.1241C26.7482 23.1257 25.1257 24.7483 23.1241 24.7483C21.1226 24.7483 19.5 23.1257 19.5 21.1241C19.5 19.1226 21.1226 17.5 23.1241 17.5C25.1257 17.5 26.7482 19.1226 26.7482 21.1241Z" fill="#49157F" stroke="#FFD600"/>
<path d="M40.5764 34.4415L40.3838 33.9801C38.15 34.9126 37.7958 37.3399 37.7817 39.1763L37.7817 39.1766C37.7537 43.1418 37.7532 46.9843 37.7804 50.7042L31.6133 50.6942V28.8672H37.4549V31.0847C37.4549 31.1685 37.4602 31.2722 37.4873 31.3724C37.5066 31.4435 37.5837 31.6894 37.8551 31.7812C38.1282 31.8736 38.3392 31.7227 38.3981 31.6768C38.4803 31.6128 38.5469 31.5327 38.5969 31.4657L38.5977 31.4646C40.9193 28.3402 44.3052 27.6923 47.897 28.7029L47.8972 28.7029C49.9022 29.2664 51.1115 30.5648 51.8356 32.2226C52.5686 33.9008 52.7988 35.9409 52.8076 37.9249V37.9249C52.8261 42.0393 52.8162 46.2958 52.778 50.6944L46.6934 50.7075C46.7088 46.6498 46.7038 42.6511 46.6782 38.7116L46.6782 38.7114C46.6708 37.6172 46.4567 36.346 45.8902 35.331L45.8901 35.3308C45.3209 34.3121 44.371 33.7836 43.3631 33.6083C42.3649 33.4348 41.2895 33.6008 40.3832 33.9803L40.5764 34.4415ZM40.5764 34.4415C42.2388 33.7453 44.4909 33.8519 45.4536 35.5747C45.9651 36.4911 46.1711 37.6705 46.1782 38.7148C46.2043 42.7336 46.209 46.8139 46.1924 50.9558L37.9536 50.7044M40.5764 34.4415C38.6617 35.2408 38.2959 37.3401 38.2817 39.1802C38.2532 43.206 38.2532 47.1052 38.2817 50.8776L37.9549 50.8776H37.9548H37.9518L37.7817 50.8776C37.7817 50.8547 37.7862 50.8321 37.795 50.8109C37.8038 50.7899 37.8167 50.7707 37.8331 50.7545C37.8493 50.7384 37.8686 50.7257 37.8899 50.7171C37.9097 50.7091 37.9308 50.7048 37.9521 50.7045C37.9526 50.7045 37.9531 50.7044 37.9536 50.7044M37.9536 50.7044L37.9567 50.7044C37.9557 50.7044 37.9547 50.7044 37.9536 50.7044Z" fill="#49157F" stroke="#FFD600"/>
<path d="M20.0498 50.7044V28.8707H26.1614V50.7044H20.0498Z" fill="#49157F" stroke="#FFD600"/>
</svg>
