<svg width="83" height="92" viewBox="0 0 83 92" fill="none" xmlns="http://www.w3.org/2000/svg">
<line x1="2.5" y1="92" x2="2.5" y2="10" stroke="#9A9A9A" stroke-width="5"/>
<path d="M8 10.4972C8 10.4972 69 14.9972 77 6.49721C85 -2.00279 82.5 27.9978 77 38.4972C71.5 48.9966 8 38.4972 8 38.4972V10.4972Z" fill="#304AD5"/>
<rect x="5" y="18" width="3" height="2" fill="#9A9A9A"/>
<rect x="5" y="29" width="3" height="2" fill="#9A9A9A"/>
<path d="M51.8 33.88L48.48 33.8L48.68 39.2L48.4 39.56L44.24 39.84L43.96 39.52L44.08 33.76H37.68L34.2 33.88L33.84 33.4V30.04L43.64 15.76H48.52L48.4 29.68H51.72L52.04 30.16L51.8 33.88ZM38.4 29.68H44.16V21.8H43.8L38.4 29.68Z" fill="white"/>
</svg>
