<svg width="1280" height="93" viewBox="0 0 1280 93" fill="none" xmlns="http://www.w3.org/2000/svg">
<line x1="-3" y1="2.5" x2="1277" y2="2.5" stroke="#FFD600" stroke-width="5"/>
<line x1="1" y1="90.5" x2="1281" y2="90.5" stroke="#FFD600" stroke-width="5"/>
<line y1="46.5" x2="23" y2="46.5" stroke="white" stroke-width="5"/>
<line x1="38" y1="46.5" x2="61" y2="46.5" stroke="white" stroke-width="5"/>
<line x1="76" y1="46.5" x2="99" y2="46.5" stroke="white" stroke-width="5"/>
<line x1="114" y1="46.5" x2="137" y2="46.5" stroke="white" stroke-width="5"/>
<line x1="152" y1="46.5" x2="175" y2="46.5" stroke="white" stroke-width="5"/>
<line x1="190" y1="46.5" x2="213" y2="46.5" stroke="white" stroke-width="5"/>
<line x1="228" y1="46.5" x2="251" y2="46.5" stroke="white" stroke-width="5"/>
<line x1="266" y1="46.5" x2="289" y2="46.5" stroke="white" stroke-width="5"/>
<line x1="304" y1="46.5" x2="327" y2="46.5" stroke="white" stroke-width="5"/>
<line x1="342" y1="46.5" x2="365" y2="46.5" stroke="white" stroke-width="5"/>
<line x1="380" y1="46.5" x2="403" y2="46.5" stroke="white" stroke-width="5"/>
<line x1="418" y1="46.5" x2="441" y2="46.5" stroke="white" stroke-width="5"/>
<line x1="456" y1="46.5" x2="479" y2="46.5" stroke="white" stroke-width="5"/>
<line x1="494" y1="46.5" x2="517" y2="46.5" stroke="white" stroke-width="5"/>
<line x1="532" y1="46.5" x2="555" y2="46.5" stroke="white" stroke-width="5"/>
<line x1="570" y1="46.5" x2="593" y2="46.5" stroke="white" stroke-width="5"/>
<line x1="608" y1="46.5" x2="631" y2="46.5" stroke="white" stroke-width="5"/>
<line x1="646" y1="46.5" x2="669" y2="46.5" stroke="white" stroke-width="5"/>
<line x1="684" y1="46.5" x2="707" y2="46.5" stroke="white" stroke-width="5"/>
<line x1="722" y1="46.5" x2="745" y2="46.5" stroke="white" stroke-width="5"/>
<line x1="760" y1="46.5" x2="783" y2="46.5" stroke="white" stroke-width="5"/>
<line x1="798" y1="46.5" x2="821" y2="46.5" stroke="white" stroke-width="5"/>
<line x1="836" y1="46.5" x2="859" y2="46.5" stroke="white" stroke-width="5"/>
<line x1="874" y1="46.5" x2="897" y2="46.5" stroke="white" stroke-width="5"/>
<line x1="912" y1="46.5" x2="935" y2="46.5" stroke="white" stroke-width="5"/>
<line x1="950" y1="46.5" x2="973" y2="46.5" stroke="white" stroke-width="5"/>
<line x1="988" y1="46.5" x2="1011" y2="46.5" stroke="white" stroke-width="5"/>
<line x1="1026" y1="46.5" x2="1049" y2="46.5" stroke="white" stroke-width="5"/>
<line x1="1064" y1="46.5" x2="1087" y2="46.5" stroke="white" stroke-width="5"/>
<line x1="1102" y1="46.5" x2="1125" y2="46.5" stroke="white" stroke-width="5"/>
<line x1="1140" y1="46.5" x2="1163" y2="46.5" stroke="white" stroke-width="5"/>
<line x1="1178" y1="46.5" x2="1201" y2="46.5" stroke="white" stroke-width="5"/>
<line x1="1216" y1="46.5" x2="1239" y2="46.5" stroke="white" stroke-width="5"/>
<line x1="1254" y1="46.5" x2="1277" y2="46.5" stroke="white" stroke-width="5"/>
</svg>
