<svg width="83" height="93" viewBox="0 0 83 93" fill="none" xmlns="http://www.w3.org/2000/svg">
<line x1="2.5" y1="93" x2="2.5" y2="11" stroke="#9A9A9A" stroke-width="5"/>
<path d="M8 11.4972C8 11.4972 69 15.9972 77 7.49721C85 -1.00279 82.5 28.9978 77 39.4972C71.5 49.9966 8 39.4972 8 39.4972V11.4972Z" fill="#304AD5"/>
<rect x="5" y="19" width="3" height="2" fill="#9A9A9A"/>
<rect x="5" y="30" width="3" height="2" fill="#9A9A9A"/>
<path d="M44.16 15.48C46.24 15.48 47.92 15.9867 49.2 17C50.48 18.0133 51.12 19.3333 51.12 20.96C51.12 22.0533 50.8133 23.12 50.2 24.16C49.5867 25.1733 48.6267 26.04 47.32 26.76V26.96C50.2267 27.7867 51.68 29.56 51.68 32.28C51.68 33.7467 51.2533 35.0533 50.4 36.2C49.5733 37.3467 48.4 38.2267 46.88 38.84C45.36 39.48 43.6133 39.8 41.64 39.8C40.2267 39.8 38.7867 39.6667 37.32 39.4L37.04 35.28L37.4 34.92C38.9733 35.48 40.4533 35.76 41.84 35.76C43.3333 35.76 44.4933 35.4667 45.32 34.88C46.1733 34.2933 46.6 33.4667 46.6 32.4C46.6 31.52 46.2933 30.84 45.68 30.36C45.0667 29.8533 44.16 29.5867 42.96 29.56H40.16L39.88 29.2L40.04 25.56L41.8 25.48C42.8133 25.4533 43.72 25.1333 44.52 24.52C45.32 23.88 45.72 23.08 45.72 22.12C45.72 21.4 45.48 20.84 45 20.44C44.52 20.04 43.8533 19.84 43 19.84C42.2533 19.84 41.4933 20 40.72 20.32C39.9733 20.6133 39.16 21.08 38.28 21.72H37.72L36.92 17.84C39.2133 16.2667 41.6267 15.48 44.16 15.48Z" fill="white"/>
</svg>
