<svg width="83" height="96" viewBox="0 0 83 96" fill="none" xmlns="http://www.w3.org/2000/svg">
<line x1="2.5" y1="91" x2="2.5" y2="9" stroke="#9A9A9A" stroke-width="5"/>
<path d="M8 9.49721C8 9.49721 69 13.9972 77 5.49721C85 -3.00279 82.5 26.9978 77 37.4972C71.5 47.9966 8 37.4972 8 37.4972V9.49721Z" fill="#304AD5"/>
<rect x="5" y="17" width="3" height="2" fill="#9A9A9A"/>
<rect x="5" y="28" width="3" height="2" fill="#9A9A9A"/>
<path d="M44.68 15.56C46.52 15.56 48.0267 16 49.2 16.88C50.3733 17.7333 50.96 18.92 50.96 20.44C50.96 21.5067 50.6 22.6933 49.88 24C49.1867 25.28 48.0533 26.76 46.48 28.44L43.48 31.76L43.56 31.92H48.96L52.56 31.6L52.88 31.96L52.24 36.24L47.4 36H38.32L36.84 36.08L36.56 35.88V32.64L41.96 27.32C43.24 26.0133 44.1867 24.9333 44.8 24.08C45.4133 23.2267 45.72 22.48 45.72 21.84C45.72 21.3067 45.52 20.88 45.12 20.56C44.72 20.24 44.16 20.08 43.44 20.08C42.5867 20.08 41.6933 20.2933 40.76 20.72C39.8267 21.1467 38.96 21.72 38.16 22.44H37.56L36.68 18.32C39.4267 16.48 42.0933 15.56 44.68 15.56Z" fill="white"/>
</svg>
