<svg width="300" height="300" viewBox="0 0 300 300" fill="none" xmlns="http://www.w3.org/2000/svg">
<rect x="2.5" y="2.5" width="295" height="295" rx="147.5" fill="#00061A" stroke="#FFD600" stroke-width="5"/>
<path d="M212.005 136.186C211.816 136.573 211.826 136.926 212.035 137.244C214.537 140.968 216.945 144.543 219.259 147.969C219.453 148.261 219.557 148.604 219.557 148.957C219.557 149.309 219.453 149.654 219.259 149.95L209.562 164.399L197.273 183.182C196.995 183.609 197.109 183.823 197.615 183.823H274.254C274.751 183.823 274.999 184.071 274.999 184.568V211.008C274.999 211.304 274.881 211.588 274.672 211.798C274.462 212.007 274.178 212.125 273.882 212.125H150.604C150.534 212.125 150.465 212.107 150.404 212.072C150.342 212.038 150.291 211.99 150.255 211.931C150.218 211.872 150.199 211.805 150.197 211.737C150.196 211.67 150.213 211.603 150.247 211.544L175.942 164.533L184.045 149.145C184.284 148.708 184.279 148.267 184.03 147.82L177.432 136.112L150.113 87.3874C150.088 87.3485 150.075 87.3036 150.074 87.2577C150.073 87.2118 150.085 87.1665 150.108 87.1267C150.131 87.0869 150.164 87.0541 150.205 87.0318C150.245 87.0095 150.29 86.9986 150.336 87.0001H274.627C274.725 87.0001 274.82 87.0394 274.89 87.1092C274.96 87.1791 274.999 87.2738 274.999 87.3725V114.557C274.999 115.054 274.751 115.302 274.254 115.302H198.256C197.67 115.302 197.546 115.545 197.884 116.032L212.005 136.186Z" fill="white"/>
<path d="M25 87L87.3687 121.499C87.633 121.645 87.9291 121.721 88.229 121.721C88.5288 121.721 88.8224 121.645 89.0817 121.499L149.439 87.3128C149.51 87.274 149.589 87.2542 149.669 87.2552C149.749 87.2562 149.828 87.2781 149.897 87.3187C149.966 87.3593 150.023 87.4171 150.063 87.4866C150.103 87.5561 150.124 87.6348 150.125 87.715V211.305C150.125 211.802 149.876 212.05 149.38 212.05H122.94C122.644 212.05 122.359 211.932 122.15 211.723C121.94 211.513 121.823 211.229 121.823 210.933V135.694C121.821 135.593 121.792 135.494 121.739 135.407C121.685 135.321 121.61 135.25 121.52 135.203C121.43 135.156 121.329 135.134 121.228 135.139C121.127 135.144 121.028 135.176 120.944 135.233L88.9476 157.234C88.5008 157.542 88.0539 157.542 87.607 157.234L54.2255 134.83C53.6099 134.413 53.302 134.577 53.302 135.322V211.231C53.302 211.718 53.0587 211.961 52.5721 211.961L25 211.737V87Z" fill="#FFD600"/>
<path d="M177.431 136.111L184.03 147.819C184.278 148.266 184.283 148.708 184.045 149.145L175.941 164.533L165.678 164.384C165.072 164.374 164.77 164.066 164.77 163.46V137.154C164.77 136.538 165.077 136.23 165.693 136.23L177.431 136.111Z" fill="#FFD600"/>
<path d="M211.902 136.156L250.318 136.186C250.815 136.186 251.063 136.434 251.063 136.931V163.996C251.063 164.255 250.929 164.384 250.661 164.384L209.459 164.369L219.156 149.92C219.351 149.625 219.454 149.279 219.454 148.927C219.454 148.575 219.351 148.231 219.156 147.939C216.842 144.513 214.434 140.938 211.932 137.214C211.723 136.896 211.713 136.544 211.902 136.156Z" fill="#FFD600"/>
</svg>
