<svg width="330" height="85" viewBox="0 0 330 85" fill="none" xmlns="http://www.w3.org/2000/svg">
<path d="M127.711 33.0272C127.584 33.2872 127.591 33.5238 127.731 33.7372C129.411 36.2372 131.027 38.6372 132.581 40.9372C132.711 41.1333 132.781 41.364 132.781 41.6005C132.781 41.837 132.711 42.0689 132.581 42.2672L126.071 51.9672L117.821 64.5772C117.634 64.8638 117.711 65.0072 118.051 65.0072H169.501C169.834 65.0072 170.001 65.1738 170.001 65.5072V83.2572C170.001 83.4561 169.922 83.6469 169.781 83.7875C169.64 83.9282 169.45 84.0072 169.251 84.0072H86.4906C86.4435 84.007 86.397 83.9949 86.3558 83.9721C86.3146 83.9492 86.2802 83.9164 86.2559 83.8769C86.2316 83.8375 86.2183 83.7927 86.2174 83.7471C86.2165 83.7016 86.2279 83.6567 86.2506 83.6172L103.501 52.0572L108.941 41.7272C109.101 41.4338 109.097 41.1372 108.931 40.8372L104.501 32.9772L86.1606 0.26718C86.1443 0.241027 86.1353 0.210919 86.1348 0.180083C86.1342 0.149246 86.1421 0.118842 86.1575 0.0921273C86.1729 0.0654128 86.1953 0.0433944 86.2223 0.0284305C86.2493 0.0134665 86.2798 0.00612085 86.3106 0.00718046H169.751C169.817 0.00718046 169.88 0.0335197 169.927 0.0804038C169.974 0.127288 170.001 0.190876 170.001 0.25718V18.5072C170.001 18.8405 169.834 19.0072 169.501 19.0072H118.481C118.087 19.0072 118.004 19.1705 118.231 19.4972L127.711 33.0272Z" fill="#FFD600"/>
<path d="M212.719 83.7972L216.469 68.7872C221.776 66.9272 226.146 63.9305 229.579 59.7972C239.139 48.2872 237.839 31.6872 226.929 21.3072C221.049 15.7138 213.649 13.3372 204.729 14.1772L202.029 0.39718C237.089 -4.02282 262.069 32.6772 244.079 63.5472C237.366 75.0605 226.913 81.8105 212.719 83.7972Z" fill="white"/>
<path d="M311.02 39.3371C311.634 39.0838 312.05 38.7271 312.27 38.2671C315.37 31.7605 321.24 19.0271 329.88 0.0671428C329.92 0.0738095 329.96 0.0804761 330 0.0871428V83.9571C322.794 76.0905 315.644 68.3071 308.55 60.6071C303.89 55.5471 299.447 50.5838 295.22 45.7171C288.514 37.9971 281.784 30.2305 275.03 22.4171L256.06 0.517143C256.007 0.490476 256.137 0.400476 256.45 0.247143C256.617 0.160476 256.794 0.113809 256.98 0.107143C262.854 0.00714279 268.684 -0.0228571 274.47 0.0171429C274.837 0.0171429 275.14 0.15381 275.38 0.427143L310.45 40.3971C310.71 40.6971 310.89 40.6571 310.99 40.2771C311.05 40.0638 311.06 39.7505 311.02 39.3371Z" fill="white"/>
<path d="M329.88 0.0671191C321.24 19.0271 315.37 31.7604 312.27 38.2671C312.05 38.7271 311.633 39.0838 311.02 39.3371V0.317119C311.02 0.245511 311.049 0.176835 311.102 0.1262C311.154 0.0755656 311.225 0.0471191 311.3 0.0471191L329.88 0.0671191Z" fill="#FFD600"/>
<path d="M0 0.0571289L41.87 23.2171C42.0474 23.3152 42.2462 23.3667 42.4475 23.3667C42.6488 23.3667 42.8459 23.3152 43.02 23.2171L83.54 0.267129C83.5871 0.241086 83.6402 0.227755 83.694 0.228446C83.7478 0.229138 83.8005 0.243828 83.8469 0.271072C83.8933 0.298316 83.9319 0.337174 83.9587 0.383825C83.9855 0.430475 83.9998 0.483309 84 0.537129V83.5071C84 83.8405 83.8333 84.0071 83.5 84.0071H65.75C65.5511 84.0071 65.3603 83.9281 65.2197 83.7875C65.079 83.6468 65 83.456 65 83.2571V32.7471C64.9988 32.679 64.9793 32.6124 64.9436 32.5544C64.9078 32.4964 64.8571 32.4491 64.7968 32.4174C64.7365 32.3857 64.6688 32.3708 64.6007 32.3743C64.5326 32.3778 64.4668 32.3995 64.41 32.4371L42.93 47.2071C42.63 47.4138 42.33 47.4138 42.03 47.2071L19.62 32.1671C19.2067 31.8871 19 31.9971 19 32.4971V83.4571C19 83.7838 18.8367 83.9471 18.51 83.9471L0 83.7971V0.0571289Z" fill="#FFD600"/>
<path d="M256.059 0.51709L275.029 22.4171L274.959 83.3571C274.959 83.7904 274.743 84.0071 274.309 84.0071H256.459C256.345 84.0071 256.236 83.9618 256.155 83.8811C256.075 83.8005 256.029 83.6911 256.029 83.5771L256.059 0.51709Z" fill="#FFD600"/>
<path d="M195.73 1.83716L198.47 15.6472C190.697 18.6605 185.32 23.6405 182.34 30.5872C176.93 43.1672 181.13 57.4972 192.15 65.1172C197.07 68.5238 202.873 70.1605 209.56 70.0272L206.04 84.0172C172.31 82.0072 154.32 44.1372 174.34 16.8372C179.613 9.65049 186.743 4.65049 195.73 1.83716Z" fill="white"/>
<path d="M204.741 14.1716C213.661 13.3316 221.061 15.7083 226.941 21.3016C237.851 31.6816 239.151 48.2816 229.591 59.7916C226.157 63.9249 221.787 66.9216 216.481 68.7816L209.571 70.0216C202.884 70.1549 197.081 68.5183 192.161 65.1116C181.141 57.4916 176.941 43.1616 182.351 30.5816C185.331 23.6349 190.707 18.6549 198.481 15.6416L204.741 14.1716Z" fill="#FFD600"/>
<path d="M104.5 32.9771L108.93 40.8371C109.097 41.1371 109.1 41.4337 108.94 41.7271L103.5 52.057L96.61 51.9571C96.2033 51.9504 96 51.7437 96 51.3371V33.677C96 33.2637 96.2067 33.057 96.62 33.057L104.5 32.9771Z" fill="white"/>
<path d="M127.64 33.0071L153.43 33.0271C153.763 33.0271 153.93 33.1937 153.93 33.5271V51.6971C153.93 51.8704 153.84 51.9571 153.66 51.9571L126 51.9471L132.51 42.2471C132.641 42.0488 132.71 41.8169 132.71 41.5804C132.71 41.3439 132.641 41.1132 132.51 40.9171C130.957 38.6171 129.34 36.2171 127.66 33.7171C127.52 33.5037 127.513 33.2671 127.64 33.0071Z" fill="white"/>
</svg>
